<?xml version="1.0" encoding="UTF-8"?>
<svg width="531.36" height="527.04" style="max-height:500px" version="1.1" viewBox="252.72 257.04 531.36 527.04" xml:space="preserve" xmlns="http://www.w3.org/2000/svg">
<desc>Created with Fabric.js 5.2.4</desc>


<g transform="translate(540 540)">
<rect x="-540" y="-540" width="1080" height="1080" rx="0" ry="0" fill="#fff" visibility="hidden"/>
</g>
<g transform="matrix(.12 0 0 .12 510.04 518.4)">
<path transform="translate(-2500 -2500)" d="m1016.6 2530.5c-36.206-3.227-77.178-5.358-122.92-6.335-56.425-1.244-110.6 2.901-162.5 12.404-56.04 10.272-108.11 29.929-156.25 58.971q-57.328 34.592-93.697 77.355c-6.424 7.549-16.104 12.049-25.548 6.039-14.92-9.503-7.993-26.644-0.74-38.633 8.733-14.476 18.088-28.272 28.094-41.357 50.119-65.632 108.23-118.89 179.43-159.51 77.977-44.435 162.32-68.118 253-71.02 46.804-1.48 91.506 1.51 134.14 8.97 17.23 3.02 33.897 7.135 50.031 12.345 3.227 1.036 3.7 0.326 1.421-2.191-27.324-30.019-60.362-54.886-99.44-61.162-36.591-5.862-42.659-47.929-13.943-69.214 12.73-9.444 24.482-18.71 35.229-27.769 50.297-42.482 83.305-100.8 102.58-162.82 7.608-24.542 14.861-48.521 21.7-71.938 26.318-90.085 69.925-184.73 155.27-233.58 16.253-9.325 33.156-13.914 50.652-13.796 0.947 0 1.451-0.474 1.539-1.451 3.671-51.037 12.108-97.042 25.282-137.98 12.552-38.929 21.493-67.911 26.851-86.947 8.348-29.574 12.256-58.349 11.753-86.325-0.207-10.509-3.109-21.581-6.779-31.173-10.924-28.538-0.918-56.603 28.124-66.727 8.763-3.049 19.213-5.921 31.351-8.585 15.246-3.316 33.719-8.822 55.419-16.549 43.281-15.365 82.269-31.025 117-46.922 46.212-21.167 94.2-43.37 143.99-66.609 0.622-0.296 0.651-0.651 0.118-1.036-24.119-17.932-48.306-35.774-72.559-53.524-87.835-64.181-180.94-111.96-282.24-141.15-24.749-7.135-49.172-10.125-73.299-9-14.328 0.681-19.272-17.466-8.704-25.4 6.365-4.766 14.624-9 24.838-12.641 47.396-16.963 94.022-22.469 139.82-16.519 35.673 4.648 72.115 12.582 105.95 23.476 70.132 22.588 135.38 52.458 195.71 89.67q2.53 1.555 2.22-1.421c-1.747-16.371 5.802-29.722 21.433-33.068 9.917-2.102 18.739 4.618 28.686 5.566 11.359 1.0184 22.669 2.5295 33.897 4.529 1.954 0.326 2.25-0.207 0.858-1.599-5.891-6.128-11.397-13.055-16.104-20.249-33.423-51.008-48.166-113.26-54.738-175.11-2.013-19.035-0.207-42.304 22.025-48.669 5.417-1.539 11.782-1.687 19.035-0.414 21.108 3.671 40.261 7.993 57.461 12.996 1.332 0.385 1.628-0.03 0.947-1.243-21.167-36.975-26.643-83.483-26.466-129.16 0.237-50.564 2.605-104.5-0.651-156.52-1.717-27.058-8.052-53.08-19.006-78.095-1.451-3.286-1.954-6.424-1.51-9.355 0.622-4.293 2.931-10.332 7.579-11.723 34.34-10.302 67.053-5.358 100.68 4.352 122.35 35.317 223.21 128.01 278.75 240.32 0.296 0.622 1.155 0.711 1.599 0.178 10.955-13.818 22.157-27.438 33.601-40.853 6.542-7.667 12.137-12.552 16.844-14.684 15.631-7.164 28.568 0.711 38.13 12.996 14.003 18.029 26.644 34.814 37.893 50.297 32.742 45.116 48.225 95.473 46.419 151.04q-0.31 9.902-2.664 19.805c-0.385 1.539 1.243 2.783 2.635 2.072 18.887-9.769 61.754-24.216 75.046 1.776 2.043 3.997 2.901 9.088 2.546 15.276-0.8 14.24-0.207 30.107 1.806 47.603 2.339 20.456 0.71 40.587-4.855 60.333-0.296 1.095 0.118 1.539 1.214 1.332 49.744-9.0575 99.498-18.057 149.26-26.999 63.027-11.309 127.62-26.081 189.47-45.59q49.024-15.409 96.894-42.363c33.127-18.651 61.014-9.177 67.941 28.242 7.816 42.334 25.46 82.092 53.939 113.95 0.888 0.977 2.516 0.326 2.457-1.007-0.651-15.009 0.178-30.314 1.984-45.235 5.062-41.505 16.519-84.134 34.37-127.86 20.563-50.39 45.361-98.947 74.128-145.15 61.488-98.818 140.26-181.06 236.36-246.72 6.779-4.648 13.115-7.667 19.035-9.118 18.325-4.441 33.778 12.345 27.176 29.782-1.865 4.973-6.365 10.184-13.47 15.631-7.223 5.565-14.358 11.368-20.545 18.118-33.571 36.561-61.31 77.977-83.187 124.31-55.004 116.43-93.43 242.75-119.45 369.9-0.355 1.776 0.059 1.984 1.214 0.592 23.92-28.272 50.208-53.435 78.835-75.49 9.769-7.549 18.709-12.7 26.821-15.512 18.029-6.247 29.219 6.631 32.683 22.736 4.0168 18.616 8.399 37.152 13.144 55.596 0.081361 0.31522 0.33081 0.55931 0.64772 0.63382 0.31691 0.074504 0.64899-0.032875 0.86228-0.27882 34.37-41.179 76.052-75.609 125.05-103.23 31.943-17.999 62.523-31.439 91.802-40.321 34.43-10.45 70.073-18.295 106.87-23.535 11.012-1.569 18.651-1.332 22.884 0.651 12.611 5.98 14.684 17.259 11.516 29.693-5.062 19.953-10.598 38.485-16.667 55.626-0.444 1.273-0.059 1.658 1.184 1.095 33.068-14.595 71.908-22.381 116.58-23.328 60.451-1.273 121.32 12.286 178.63 34.518 45.62 17.674 86.799 33.216 123.48 46.567 9.266 3.375 16.459 7.638 21.521 12.789 9.236 9.355 22.795 17.141 11.368 32.328-10.569 14.091-24.334 26.229-34.933 39.669-19.272 24.453-36.028 50.652-50.268 78.628-22.203 43.695-41.919 84.845-68.415 127.56-13.529 21.877-30.226 41.238-50.06 58.142-0.087186 0.075986-0.13467 0.18779-0.12882 0.30329 0.0058532 0.1155 0.064397 0.22193 0.15882 0.28871 24.63 17.97 48.195 36.975 70.694 57.047 12.522 11.161 5.713 23.624-5.151 32.387-15.648 12.58-31.142 25.351-46.479 38.308-37.863 31.943-80.316 56.07-127.42 72.322-0.829 0.296-0.948 1.391-0.207 1.835 4.2115 2.5073 8.3387 5.1535 12.375 7.934 16.016 10.953 14.594 29.574-1.865 38.929-27.324 15.542-56.277 30.67-86.887 45.383-18.252 8.791-37.306 15.81-56.899 20.96-1.036 0.266-1.51 1.51-0.888 2.398 10.924 16.075 21.848 30.847 32.712 44.317 37.419 46.33 82.773 79.812 136.06 100.5 21.907 8.496 30.788 34.962 12.818 52.606-8.556 8.378-19.716 15.601-27.029 24.719-18.236 22.677-29.249 45.531-33.038 68.533-9.147 55.448-5.299 111.25-3.019 166.55 0.089 2.398 0.918 2.665 2.427 0.829 7.135-8.674 14.95-17.141 23.476-25.43 82.743-80.552 189.82-141.3 303.62-163.65 66.639-13.085 135.44-9.592 200.74 5.861 25.341 5.98 25.074 39.936-1.333 41.238-111.46 5.477-208.85 59.504-293.67 131.21-41.327 34.933-93.549 84.904-156.69 149.91-2.25 2.339-1.895 2.872 1.095 1.628 60.066-25.282 124.37-30.344 190.56-18.828 8.94 1.539 17.23 4.204 24.897 8.022 26.052 12.907 29.752 43.311 6.306 60.807-13.144 9.829-24.985 19.894-35.495 30.167-1.628 1.598-1.332 2.25 0.947 1.983 73.418-8.822 152.4 8.437 219.51 37.538 66.313 28.746 122.65 64.537 183.37 100.92 28.509 17.081 33.808 45.442 2.842 64.566-23.298 14.358-47.041 30.64-71.227 48.876-39.669 29.87-81.915 56.484-127 76.911-27.621 12.522-57.461 24.068-89.552 34.637-0.41942 0.13949-0.74858 0.46848-0.88829 0.88782s-0.073649 0.88001 0.17829 1.2432q20.471 29.975 39.432 64.122c13.263 23.979 3.049 50.178-24.423 55.833-16.312 3.345-33.394 6.868-49.942 11.072-33.275 8.437-66.046 11.694-98.285 9.769-30.907-1.806-65.75-10.065-96.272-17.703-0.948-0.237-1.451 0.148-1.51 1.125l-3.849 58.29c-0.059872 0.98941 0.35854 1.9475 1.125 2.576 16.924 14.288 33.661 28.795 50.208 43.518 4.677 4.174 8.615 8.674 11.842 13.499 8.437 12.759 6.128 29.042-6.424 38.041-21.137 15.142-42.811 29.519-64.98 43.104-0.918 0.533-0.948 1.865-0.089 2.487 3.996 2.871 7.578 5.832 10.717 8.881 40.409 38.988 75.371 82.565 104.92 130.67 14.477 23.594 28.153 53.317 42.097 79.99 11.871 22.736 17.229 48.432-16.667 54.383-26.466 4.648-49.764 6.542-69.895 5.713-0.40759-0.011458-0.7964 0.17136-1.0476 0.49257-0.25117 0.32121-0.33484 0.74263-0.22544 1.1354 0.622 2.25 1.717 4.263 3.345 6.069 10.036 11.131 18.058 23.002 24.009 35.614 30.226 64.033 50.268 134.52 57.698 202.43 4.115 37.33 3.878 73.921-0.681 109.8-3.582 28.154-6.246 54.442-7.993 78.895q-1.021 13.9-12.966 20.87-6.528 3.774-21.581 3.908c-17.851 0.148-34.844-0.059-50.978-0.563-32.564-1.066-66.076-6.157-100.51-15.305-60.54-16.045-114.98-42.6-163.38-79.694-0.415-0.326-0.652-0.207-0.681 0.296-2.339 40.409-7.608 82.329-15.838 125.76-1.539 8.171-5.21 17.97-12.493 22.529-14.979 9.385-32.505-2.279-46.034-11.842-17.911-12.641-34.637-24.334-50.238-35.11-33.778-23.357-60.806-52.784-91.387-86.947-21.995-24.571-44.613-54.293-58.971-86.562-0.918-2.042-1.628-1.954-2.132 0.207-2.723 11.545-5.21 22.825-7.431 33.867-5.062 24.778-22.706 42.334-49.646 33.778-17.762-5.655-35.081-25.371-46.153-40.084-2.22-2.99-2.96-2.664-2.191 0.977 6.542 31.38 5.98 62.168 3.671 97.959q-10.835 166.88-56.396 327.72c-13.884 49.084-26.14 90.529-36.709 124.37-5.447 17.289-30.522 17.229-32.742-1.599-0.326-2.931 0.266-7.431 1.835-13.47 21.996-84.815 30.374-173.15 25.163-264.99-6.69-118.42-24.986-233.84-65.721-344.2-13.909-37.656-28.436-75.08-43.577-112.26-0.385-0.977-1.658-1.243-2.398-0.503-54.383 53.258-116.4 104.62-178.93 142.13q-53.11 31.84-114.66 50.8-92.809 28.597-191.21 28.597-1.91 0-1.51 1.865c4.085 19.627 6.394 39.965 6.898 61.073 1.954 78.895-11.753 155.09-30.492 234.64-4.174 17.792-18.621 29.071-36.501 18.917-9.9976-5.6708-19.719-11.816-29.13-18.414-1.273-0.859-1.717-0.563-1.391 0.947 9.858 45.383 12.937 92.216 9.295 140.5-0.77 9.947-1.51 20.871-2.191 32.742-0.44615 7.5241-1.3259 15.016-2.635 22.439-3.227 18.207-4.174 42.719-25.696 47.811-6.069 1.451-14.772 0.415-26.081-3.079-25.163-7.786-47.514-15.749-67.053-23.949-1.835-0.74-2.368-0.207-1.628 1.628 10.154 25.607 15.039 54.293 14.595 80.67-0.977 60.6-17.526 121.61-42.393 177.8-15.779 35.614-34.015 70.931-54.086 103.41-11.757 19.05-23.44 38.145-35.051 57.284-5.95 9.828-11.901 21.374-16.549 31.943-3.138 7.164-6.779 12.226-10.894 15.187-17.822 12.878-32.949-10.924-45.057-20.308-72.559-56.277-142.6-113.5-196.45-188.84-42.718-59.771-68.651-123.66-77.74-191.63-0.503-3.76-1.894-4.085-4.115-1.036-4.3511 6.036-8.5271 12.196-12.523 18.473q-7.55 11.857-13.855 16.696c-22.588 17.17-49.024 1.658-60.422-20.604-38.337-74.927-53.465-154.5-45.383-238.78 5.358-55.951 22.854-108.68 50.978-158.2 0.888-1.569 0.474-2.072-1.243-1.539-15.009 4.589-30.551 9.947-46.567 16.016-8.852 3.375-15.986 4.648-21.344 3.819-25.104-3.819-30.551-25.992-23.476-47.307 10.095-30.521 23.091-59.385 38.959-86.621 1.391-2.338 0.947-2.753-1.273-1.184-2.7028 1.899-5.3298 3.9035-7.875 6.009-44.702 36.768-89.226 80.493-129.7 124.9q-66.742 73.226-112.97 150c-19.983 33.216-36.265 69.422-48.787 108.62-23.772 74.276-24.453 148.88-2.013 223.81 2.901 9.71-2.516 21.996-12.818 24.927-17.437 4.943-27.739-11.605-34.311-25.756-12.67-27.413-20.871-53.583-27.976-81.529q-39.389-154.49 4.974-305.69c31.114-105.92 88.693-199.59 167.02-278.04 32.92-32.979 67.911-62.405 108.35-84.46 0.385-0.207 0.326-0.77-0.059-0.947-63.205-28.686-123.89-64.181-182.06-106.46-24.66-17.911-49.942-36.117-75.845-54.679-42.719-30.581-88.96-55.744-136.98-76.496-19.509-8.437-40.646-14.713-63.382-18.828-27.769-5.033-38.219-35.021-21.226-57.224 12.133-15.837 22.983-32.616 32.446-50.179 1.687-3.138 0.918-3.967-2.309-2.457-25.223 11.694-48.402 20.782-69.569 27.324-13.647 4.204-24.127-5.862-22.233-19.864 1.539-11.338 3.701-22.321 6.513-32.979 0.503-1.984-0.059-2.369-1.687-1.125-54.323 40.883-113.35 70.22-177.03 87.983-36.443 10.154-77.266 15.897-122.53 17.259-16.726 0.503-36.057-3.819-38.87-23.298-0.77-5.358 0.503-13.736 3.789-25.075 2.427-8.378 4.973-16.548 7.667-24.453 1.332-3.878 0.296-4.677-3.049-2.339-68.77 47.514-139.05 78.806-223.3 110.22-44.939 16.756-87.628 27.235-128.1 31.439-9.207 0.947-19.775 1.125-31.676 0.533-1.0256-0.034003-2.0374 0.24465-2.901 0.799-2.457 1.658-4.056 3.997-7.283 4.263-6.75 0.622-10.687-2.398-11.842-9-0.16389-0.95105-0.63117-1.8235-1.332-2.487-3.404-3.316-5.625-7.016-4.855-12.019 1.125-7.342-0.03-14.24 0.859-21.759 4.322-36.531 8.94-66.638 13.884-90.351 18.354-88.368 55.892-171.08 112.64-248.11 12.217-16.612 25.602-32.332 40.054-47.041 1.243-1.244 1.007-2.043-0.711-2.427-10.273-2.191-19.509-2.457-27.739-0.8-34.962 7.016-48.639-24.453-32.416-51.451 7.253-12.049 15.749-23.624 25.548-34.696 43.074-48.847 90.943-95.71 149.88-125.05 37.034-18.443 77.769-29.337 122.21-32.742 0.918-0.059 1.391-1.125 0.859-1.865-7.934-10.983-15.72-21.404-23.387-31.262-16.46-21.167-2.605-39.284 15.986-51.185 27.532-17.673 54.442-32.15 82.565-44.495 2.044-0.882 1.955-1.415-0.265-1.622m1326.1-1813.7c14.713 42.837 22.499 86.592 23.357 131.29 0.71 38.011-2.664 74.691-10.154 110.07-0.326 1.48 0.148 1.776 1.391 0.918 12.226-8.556 22.469-17.614 30.669-27.176 2.7347-3.183 6.0761-5.7893 9.829-7.667 25.519-12.937 50.712-18.799 75.608-17.526 1.214 0.059 1.836 1.48 1.066 2.427-10.894 13.115-19.894 28.242-30.788 41.594-4.1985 5.1729-8.3629 10.373-12.493 15.601-1.155 1.451-0.089 3.612 1.776 3.582 1.332-0.03 2.546-0.474 3.612-1.362 13.292-11.22 24.778-22.736 34.518-34.489 3.286-3.937 4.263-3.434 2.96 1.51l-9.917 37.715c-0.059 0.207 0.148 0.414 0.355 0.355 3.908-1.125 13.085-3.404 27.531-6.868 0.563-0.148 0.948-0.474 1.095-1.036 4.115-14.24 9.148-29.337 10.51-43.577q2.265-23.447-4.796-46.715c-0.46839-1.5938-2.1294-2.5164-3.73-2.072-24.186 6.839-47.248 14.447-69.214 22.825-4.589 1.747-9.473 2.25-14.654 1.569-1.154-0.148-2.131-0.681-2.901-1.539-10.569-11.842 2.043-25.519 3.108-38.278 6.631-78.243-14.832-156.49-74.543-207.55-3.02-2.576-7.164-3.375-10.746-1.362-21.492 12.138-33.423 31.499-48.047 50.771-6.513 8.555-15.631 12.226-24.926 5.003-5.891-4.559-9.621-8.555-11.25-11.99-12.523-26.495-29.782-51.718-51.718-75.608-70.902-77.207-156.37-131.32-256.34-162.38-1.48-0.444-1.983 0.059-1.539 1.51 6.572 22.233 11.368 44.583 14.358 67.023q8.481 63.368 8.348 126.02c-0.059 25.43 0.148 51.215 0.651 77.414 0.533 28.035 6.602 55.596 12.552 82.802 0.592 2.753 0 5.092-1.806 7.075-1.214 1.332-2.724 1.954-4.5 1.835-24.66-1.539-48.373-0.237-71.109 3.878-0.977 0.178-1.688 1.007-1.747 2.013-3.108 58.497 6.987 112.29 30.255 161.4 6.69 14.151 15.72 30.67 27.058 49.527 1.895 3.138 2.546 6.898 3.878 10.273 0.326 0.829 1.007 1.51 1.895 1.776 1.095 0.355 1.776 1.036 2.013 2.013 0.71 2.812-0.355 3.878-3.168 3.197-26.525-6.306-51.274-11.516-76.141-5.625-0.947 0.237-1.54 1.184-1.273 2.131 9.148 34.37 22.055 67.171 38.722 98.433 0.829 1.539 2.635 2.28 4.293 1.717 57.52-19.331 114.54-29.663 171.08-31.055 4.47-0.118 4.766-1.243 0.829-3.375-33.63-18.266-68.06-35.14-103.29-50.682-1.569-0.711-1.688-1.599-0.385-2.694 0.888-0.74 2.428-0.888 4.618-0.385 47.011 10.717 92.572 24.779 136.65 42.215 4.204 1.658 8.2 3.493 12.019 5.477 1.036 0.533 1.51 0.207 1.451-0.947-2.96-72.204-9.562-143.58-19.775-214.16-0.18091-1.2342-0.73948-2.3821-1.599-3.286-15.098-15.69-27.621-32.712-46.981-44.051-21.522-12.582-42.571-25.341-63.086-38.278-1.51-0.947-2.22-1.865-2.191-2.753 0.03-1.391 0.71-1.835 2.013-1.391 30.462 10.835 56.396 21.078 77.77 30.729 8.792 3.997 17.437 8.822 25.933 14.536 0.533 0.355 1.273-0.089 1.155-0.74-13.825-82.299-32.742-162.17-62.612-238.79-12.256-31.469-28.716-63.264-44.347-93.815-0.47604-0.98339-0.84322-2.0159-1.095-3.079-0.918-3.937 0.059-4.441 2.901-1.569 4.885 5.003 8.615 9.769 14.565 13.529 26.022 16.519 50.859 36.176 74.484 58.942 32.564 31.38 62.908 65.217 91.032 101.48 0.9468 1.2204 1.513 2.6927 1.628 4.233 2.102 26.436 0.977 51.067-3.316 73.832-0.148 0.622 0.118 0.918 0.77 0.888 0.55192-0.04892 1.0365-0.38693 1.273-0.888 7.993-17.378 14.032-34.104 18.088-50.179 0.444-1.687 1.184-1.835 2.25-0.444 11.22 15.009 22.292 30.64 33.245 46.863 3.701 5.477 5.299 11.19 4.796 17.17-1.036 12.759-0.651 25.519-1.717 38.426-0.178 2.131 0.177 2.22 1.095 0.296 19.865-42.6 42.334-84.638 67.408-126.14 1.391-2.339 2.368-2.161 2.931 0.503 3.997 19.272 5.21 38.396 3.612 57.372q-4.13 49.69-13.055 90.055-0.267 1.199 0.355 2.398c0.918 1.687 1.776 1.687 2.635-0.03 5.7983-11.665 10.468-23.859 13.944-36.413 7.904-28.449 13.914-57.165 17.969-86.147 0.208-1.446 0.534-1.506 1.038-0.114m878.82 80.493c0.918 1.007 1.125 2.132 0.651 3.404-23.979 66.076-43.903 131.29-52.784 199.77-1.48 11.516-1.924 30.285-1.302 56.366 0.03 1.717 0.77 3.049 2.22 4.026l9.888 6.542c1.036 0.681 1.717 0.415 1.984-0.799 24.867-105.92 55.33-210.04 91.269-311.55 21.256-60.066 45.265-118.92 72.056-176.53 7.046-15.157 15.483-30.314 23.032-45.235 1.154-2.25 0.799-2.487-1.007-0.74-36.028 34.903-69.007 73.477-96.687 115.19-46.893 70.635-84.875 146.72-113.92 228.22-16.282 45.738-26.792 95.029-37.656 143.49-0.296 1.243-0.059 2.576 0.592 3.671 0.829 1.391 1.895 2.368 3.197 2.96 1.273 0.592 2.783-0.059 3.197-1.391 20.219-64.241 41.623-121.91 64.211-172.98 7.727-17.437 17.2-35.791 28.449-55.034 0.385-0.681 1.362-0.77 1.895-0.178zm-1018.9 163.92c-25.252-118.24-62.997-233.49-127.36-336.45-0.089-0.178-0.237-0.207-0.414-0.118l-0.03 0.03c-0.296 0.148-0.385 0.355-0.237 0.651 21.209 49.105 38.252 99.907 50.948 151.87 21.877 89.463 38.13 186.03 48.698 289.7 2.073 20.397 2.694 39.521 1.865 57.432-0.089 1.539 0.977 2.872 2.487 3.168 7.667 1.451 14.95 3.434 21.788 5.891 1.925 0.68687 4.066-0.097308 5.092-1.865l12.019-20.693c0.473-0.859 0.681-1.806 0.533-2.753-0.77-5.862-2.072-11.19-1.983-17.289q0.933-62.436-13.41-129.58m1100.7 53.494c-4.766 13.766-7.963 27.324-9.562 40.735-0.474 4.026 0.918 4.855 4.204 2.457 1.302-0.977 2.368-2.191 3.227-3.641 10.243-17.851 19.42-35.88 27.532-54.146 2.013-4.47 3.375-4.292 4.085 0.563 1.747 11.96 4.174 24.334 5.299 36.235 3.375 35.347 6.276 70.398 13.588 104.5q1.021 4.662 1.954 0 4.485-21.759 10.214-45.294c1.332-5.358 1.776-10.776 1.332-16.223-0.355-4.381 0.592-7.075 3.227-10.125 21.344-24.897 45.738-47.81 73.151-68.711 56.307-42.926 112.23-82.684 178.16-107.17 1.865-0.681 2.102-0.355 0.652 1.036-22.173 21.404-43.4 42.807-58.35 69.54-0.3528 0.63484-0.20367 1.4309 0.355 1.895 0.918 0.77 1.718 0.77 2.428 0.03 29.338-31.351 61.547-57.284 96.598-77.77 1.776-1.036 2.28-0.622 1.51 1.303-8.615 21.463-10.243 44.85-4.885 70.132 0.385 1.776 0.148 3.523-0.651 5.21-11.102 23.15-19.391 44.11-24.927 62.908-1.628 5.477-1.006 5.773 1.865 0.829 13.825-23.713 29.012-45.383 45.59-65.01q2.265-2.62 5.151-4.085c12.73-6.246 27.087-11.516 43.044-15.868 101.78-27.621 206.34-18.532 306.79 14.476 10.42 3.434 21.611 1.599 32.209 0.533q0.399-0.045 0-0.178c-33.867-10.273-67.912-19.805-101.63-28.864-20.812-5.595-42.393-10.125-64.685-13.588-71.138-11.042-141.77-4.855-211.88 18.591-1.066 0.355-1.865 0.03-2.428-0.947-2.546-4.648-3.167-10.42-1.244-15.512 6.188-16.43 9.296-34.015 9.355-52.725 0-1.095-0.888-1.983-1.983-2.013-104.21-2.724-208.77 51.57-276.5 127-12.878 14.358-24.275 28.331-34.193 41.86-1.806 2.457-4.026 4.056-6.661 4.766-4.056 1.066-7.934-2.22-7.52-6.394 2.398-24.512-10.45-54.767-23.15-76.941-0.415-0.77-1.421-0.977-2.132-0.474-50.534 35.288-93.549 85.082-124.51 137.54-0.858 1.421-0.473 3.256 0.829 4.263l14.861 11.368c1.51 1.155 2.635 0.859 3.434-0.858 15.661-33.926 37.39-64.566 65.158-91.92 1.335-1.303 1.72-1.066 1.098 0.68m-348.05 122.09c0.77 0.918 1.007 1.984 0.74 3.138-2.161 9.325-3.375 18.384-3.641 27.117-0.031589 1.0177 0.56954 1.9488 1.51 2.339 41.505 17.111 82.506 35.051 122.97 53.85 11.138 5.1806 22.497 9.8724 34.045 14.062 17.851 6.483 25.963 21.108 29.663 39.432 3.256 16.075 10.184 34.429 20.782 55.034 19.81 38.496 39.231 77.19 58.261 116.08 15.868 32.416 28.242 67.319 37.123 104.77 3.138 13.203 4.026 25.785 2.694 37.715-0.1386 1.3763 0.47181 2.7212 1.599 3.523 26.614 18.502 54.767 35.85 84.519 52.073 0.74 0.385 1.51 0.651 2.309 0.74 0.71 0.089 1.391-0.355 1.628-1.036 19.331-58.379 33.097-116.76 31.025-177.59-2.309-67.882-23.387-129.55-63.263-184.97-43.548-60.57-103.11-105.27-164.27-149.91q-53.775-39.299-100.09-87.924c-34.577-36.324-56.692-82.121-71.316-130.7-0.385-1.273-1.836-1.895-3.02-1.273-34.429 18.443-69.747 32.712-107.08 43.755-102.13 30.255-204.15 48.55-305.72 65.78-55.951 9.503-108.32 23.298-157.11 41.445-36.472 13.559-70.28 31.528-101.45 53.879-17.999 12.937-36.768 23.772-55.626 35.436-0.37319 0.227-0.60578 0.62779-0.6177 1.0644s0.19845 0.84954 0.5587 1.0966l26.496 18.621c0.74 0.533 1.746 0.503 2.457-0.089 66.935-54.826 143.58-93.193 229.88-115.1 22.588-5.714 46.567-10.835 71.967-15.305 10.924-1.924 21.788-3.168 32.594-3.671 1.9672-0.091599 3.9274 0.29439 5.713 1.125 3.523 1.628 3.789 6.513 0.474 8.496-36.069 21.536-71.406 44.275-105.95 68.178-1.747 1.214-1.628 1.421 0.355 0.651 39.551-15.424 78.036-31.38 117.56-50.238 57.372-27.384 113.71-57.017 174.6-76.082 31.558-9.858 64.951-12.937 97.131-21.137q14.832-3.774 30.196-7.638c2.1231-0.54081 4.3518 0.35777 5.506 2.22 2.901 4.618-0.326 8.467-4.115 10.687-36.679 21.611-69.125 53.465-97.308 95.562-6.72 10.006-17.644 23.476-18.414 35.88-0.355 6.039-0.859 11.93-1.539 17.644q-0.888 7.771 2.487 0.711c1.9519-4.0735 4.2599-7.9667 6.897-11.634 21.996-30.61 47.219-58.379 75.727-83.335 14.062-12.286 28.124-22.647 42.156-31.055 0.444-0.266 0.888-0.296 1.362-0.089 0.326 0.148 0.563 0.326 0.77 0.592 0.503 0.681 0.474 1.391-0.03 2.072-18.414 25.548-37.804 55.774-51.481 80.227-9.858 17.644-17.94 36.383-24.186 56.248q-0.844 2.62 1.687 3.819c2.753 1.273 5.24 1.451 7.49 0.562 1.0076-0.38978 1.8531-1.1101 2.398-2.043q13.633-23.225 33.837-42.896c0.43586-0.40869 1.0023-0.64994 1.599-0.681 1.45-0.089 2.28 0.415 2.457 1.451 0.14926 0.85041 0.088502 1.7244-0.177 2.546-5.5206 15.718-9.5353 31.925-11.99 48.402-0.24328 1.6456 0.71209 3.2333 2.28 3.789l12.049 4.204c1.9444 0.68336 4.1072 0.23927 5.625-1.155l22.677-20.634c0.737-0.679 1.891-0.59 2.542 0.18m-1185.8-30.995c32.416 14.328 64.093 33.304 95.858 50.386 3.76 2.013 7.046 5.625 11.279 6.098 3.286 0.385 3.789-0.622 1.451-2.99-8.733-8.852-16.637-18.917-23.683-30.226-5.269-8.437-11.131-12.049-19.006-17.348-54.886-36.798-112.67-64.951-173.92-88.96-50.534-19.805-103.32-33.867-158.38-42.245-20.397-3.108-41.061-3.967-62.05-2.605-5.625 0.385-5.684 1.214-0.207 2.546 118.42 28.686 228.54 78.776 330.38 150.21 23.18 16.253 42.186 32.18 57.076 47.722 1.332 1.362 2.872 1.717 4.648 1.066l8.141-3.02c2.368-0.859 2.575-2.102 0.651-3.73l-74.75-62.879c-8.615-7.252-7.786-8.584 2.516-4.025m2215.6-120.49-0.118-0.77c-0.059-0.355-0.267-0.503-0.622-0.474q-106.04 12.3-209.86 46.715c-105.8 35.081-203.68 83.957-293.58 146.63-33.63 23.446-65.07 51.185-94.377 79.783-0.829 0.799-1.007 2.072-0.415 3.049l16.46 27.828c0.296 0.503 1.007 0.622 1.421 0.178 106.69-111.28 232.48-193.49 377.33-246.6 64.418-23.624 132.3-42.334 203.62-56.129 0.117-0.029 0.176-0.088 0.147-0.207m-79.576 257.14q-1.11 3.02-5.062 1.155c-38.292-18.165-77.281-34.825-116.88-49.942-37.686-14.388-81.056-25.933-130.14-34.637-12.937-2.279-35.111-0.237-51.481-7.223-1.095-0.474-2.368-0.326-3.375 0.326-66.047 44.909-125.85 97.278-169.45 162.56-0.652 1.007 0.177 2.279 1.362 2.102 9.888-1.599 17.969-0.355 27.62 1.036 66.876 9.532 131.92 23.535 195.12 42.038 29.989 8.792 59.8 19.894 89.434 33.364 1.066 0.474 1.362 1.836 0.622 2.724-0.799 0.947-1.688 1.332-2.664 1.125-60.303-12.463-119.78-23.328-179.61-27.621-2.368-0.177-2.575 0.444-0.651 1.836 24.63 17.733 48.106 40.439 70.398 68.119 23.594 29.308 45.383 60.422 64.981 92.483 0.79446 1.2936 2.1829 2.1046 3.7 2.161 23.861 0.888 48.61 1.036 71.671-4.914 18.502-4.766 37.389-11.013 56.662-18.68 1.214-0.503 1.421-1.243 0.622-2.28-10.154-12.907-20.871-22.795-32.209-29.663-10.776-6.513-17.022-17.259-12.434-29.87 4.115-11.22 13.677-17.141 28.746-17.792 11.397-0.503 22.558-1.066 33.511-1.628 22.529-1.214 44.761-7.223 66.698-18.058 28.064-13.855 51.363-36.087 75.875-58.497 0.799-0.74 0.917-1.983 0.237-2.872-11.575-14.802-24.956-27.354-40.202-37.656-6.306-4.233-13.292-6.631-20.072-10.036-10.332-5.21-14.565-17.674-9.207-28.183 2.812-5.506 6.927-9.888 12.345-13.174 29.752-17.881 46.241-44.584 61.487-73.773 16.358-31.337 32.897-62.58 49.616-93.726 20.22-37.627 44.495-75.579 75.224-105.36 1.421-1.391 1.125-2.072-0.858-2.043-91.861 0.799-182.03 15.779-270.46 44.88-76.526 25.193-148.85 58.853-217.03 100.98-0.651 0.385-0.503 1.362 0.207 1.569 86.059 24.305 173.89 52.044 252.08 91.92 8.2 4.174 15.838 9.207 22.973 15.068 0.64655 0.52714 0.88373 1.4086 0.589 2.189m-2223.3 294.12c0.178-0.474 0.651-0.77 1.125-0.681 21.783 3.8332 43.41 8.5043 64.833 14.003 38.959 9.976 76.023 20.397 111.16 31.262 3.345 1.036 3.582 0.533 0.71-1.451-5.122-3.582-10.184-6.839-15.246-9.74-77.148-44.258-162.47-72.944-247.67-95.118-1.095-0.266-1.806-0.977-2.072-2.102-0.326-1.303 0.622-2.605 1.984-2.694 11.605-0.681 24.482 0.119 38.604 2.339 69.717 11.042 134.88 25.607 195.47 43.666 2.25 0.681 4.174 1.036 5.773 1.125q3.197 0.177 0.355-1.332c-64.625-34.045-134.22-59.385-206.28-71.079-22.999-3.7316-46.076-6.969-69.214-9.71-1.48-0.148-2.664-1.243-2.99-2.664-0.503-2.22 0.326-3.582 2.457-4.145 3.0175-0.7666 5.9678-1.7766 8.822-3.02q73.092-31.217 155.78-47.603c47.041-9.325 103.11-12.582 152.52-3.404 2.161 0.414 2.309 0 0.503-1.244-33.186-22.706-74.75-40.409-115.19-43.755-0.947-0.089-1.835-0.355-2.635-0.858-1.687-1.036-2.191-2.872-1.48-5.447 0.29568-1.125 1.004-2.0975 1.984-2.724 33.364-21.848 70.517-37.331 106.72-52.369 35.821-14.861 74.632-23.713 113.38-23.831 42.067-0.118 81.618 4.796 118.62 14.743 23.121 6.217 43.192 17.259 62.76 31.291 0.03 0 0.03 0 0.059-0.03l0.444-0.563c0.237-0.326 0.207-0.592-0.059-0.859-22.41-19.983-46.36-38.248-71.819-54.767-10.421-6.75-21.078-9.621-31.617-15.098-2.398-1.243-2.161-4.737 0.385-5.625 2.575-0.918 5.447-1.214 8.585-0.829 85.052 10.213 162.94 52.695 218.68 116.55 0.267 0.326 0.71 0.474 1.155 0.385l28.331-5.24c0.1346-0.023317 0.24694-0.11587 0.29558-0.24353 0.04864-0.12765 0.026376-0.2715-0.058582-0.37847-26.259-32.239-50.327-66.935-83.039-94.496q-26.289-22.158-64.477-32.15c-67.586-17.674-143.52-7.993-211.34 12.138-53.524 15.897-108.26 36.768-164.18 62.672-105.66 48.906-180.5 85.289-279.31 116.79-13.351 4.263-26.792 7.756-40.261 10.45-1.8091 0.35872-3.2883 1.6575-3.878 3.405-10.391 30.018-16.874 60.925-24.275 91.239-8.26 33.749-18.295 68.089-27.828 101.93-15.72 55.863-20.989 112.23-15.809 169.13 3.523 38.544 9.769 74.276 18.769 107.2q10.702 39.077 29.574 88.812c22.499 59.178 56.958 110.54 103.38 154.03 47.189 44.198 109.65 83.276 169.42 111.9 1.806 0.858 2.25 0.415 1.273-1.332-6.365-11.634-12.493-24.305-18.325-38.011-2.25-5.299-7.135-7.667-11.664-10.569-3.3892-2.166-6.6058-4.5909-9.621-7.253-33.66-29.929-58.793-53.879-75.461-71.908-17.555-19.006-35.11-38.811-52.695-59.386-0.414-0.503-0.326-0.888 0.237-1.184l1.007-0.533c0.89191-0.47331 1.9821-0.35609 2.753 0.296 13.481 11.771 27.02 23.474 40.617 35.11 25.933 22.173 53.198 40.794 81.766 55.863 1.125 0.592 2.428-0.444 2.102-1.687-22.292-82.536-19.213-165.9 9.296-250.07 21.552-63.678 55.537-125.08 94.999-182.33 0.829-1.184 0.681-2.813-0.355-3.849-5.536-5.418-10.45-11.664-14.743-18.68-4.5-7.342-10.184-14.121-15.72-20.604-0.23908-0.26107-0.41163-0.57599-0.503-0.918-0.148-0.622 0.059-1.184 0.681-1.658 0.385-0.266 0.859-0.355 1.273-0.207 9.592 3.375 18.947 5.98 28.094 7.845 6.365 1.273 12.522 4.263 18.532 8.911 1.273 0.977 2.457 0.918 3.612-0.207l0.651-0.651c0.592-0.592 0.592-1.539 0-2.102-15.068-14.21-29.426-29.101-45.412-41.061-4.8583-3.6408-9.7529-7.233-14.683-10.776-0.918-0.651-0.799-2.043 0.207-2.546 0.977-0.474 2.013-0.592 3.049-0.326 20.989 5.358 42.304 11.664 63.945 18.947 4.293 1.451 8.526 3.464 12.7 6.069 1.155 0.71 2.664 0.089 2.96-1.214 0.207-0.829 0-1.539-0.563-2.161-9.029-9.621-19.154-18.295-30.403-25.963-35.998-24.512-76.26-45.383-120.78-62.642-0.89803-0.32814-1.3613-1.321-1.036-2.22zm1394.1 660.85c0.918 0.326 1.184 0.918 0.859 1.806-20.946 53.769-43.005 107.1-66.165 159.95-0.148 0.296-0.059 0.533 0.237 0.681h0.03c0.385 0.207 0.71 0.148 0.977-0.237 27.857-42.222 55.724-84.437 83.602-126.65 6.897-10.45 14.535-21.108 22.913-32.031 0.37828-0.50073 0.9249-0.84774 1.539-0.977 0.62906-0.15328 1.2898-0.11214 1.895 0.118 0.98632 0.38967 1.5034 1.4757 1.184 2.487-1.4916 4.7675-3.1604 9.4778-5.003 14.121-16.963 43.044-36.117 87.036-57.432 131.97-1.954 4.115-1.51 4.381 1.303 0.799 6.1159-7.8084 12.068-15.744 17.851-23.802 48.461-67.379 92.009-137.72 130.58-210.99 1.628-3.049 3.079-2.96 4.352 0.237 0.266 0.622 0 1.924-0.74 3.908-30.166 78.598-67.645 154.09-107.14 228.01-1.836 3.434-1.421 3.73 1.273 0.888 55.981-59.533 103.88-120.99 143.67-184.37 0.42622-0.71773 1.1002-1.2548 1.895-1.51q3.997-1.377 2.487 2.575c-9.621 25.371-20.545 49.972-32.771 73.773q-45.605 88.634-102.76 165.9c-1.747 2.398-1.451 2.724 0.947 0.977 21.526-15.596 43.636-30.37 66.283-44.288 2.0417-1.2687 3.9378-2.758 5.654-4.441 27.739-27.561 53.257-54.234 76.585-79.99 46.952-51.777 79.191-120.99 99.055-186.95 11.96-39.758 19.391-77.296 22.292-112.58 4.056-49.291-0.71-99.38-14.299-150.24-8.378-31.321-18.443-62.642-30.226-93.963-0.622-1.628-1.806-2.487-3.553-2.605-33.156-2.131-65.721-1.806-98.907 5.477-1.095 0.237-2.161-0.562-2.25-1.687s0.414-1.924 1.45-2.368q1.199-0.532 2.309-1.155c18.336-10.706 37.658-19.628 57.698-26.644 0.592-0.207 0.681-1.036 0.118-1.332-17.158-9.6254-34.086-19.654-50.771-30.078-17.525-10.983-31.41-21.137-41.682-30.492-22.795-20.723-44.288-45.176-64.507-73.329-14.891-20.723-27.029-44.583-32.564-69.332-0.858-3.878 0.207-4.529 3.197-1.895 10.687 9.325 23.89 16.312 35.821 24.423 14.074 9.5453 28.116 19.137 42.126 28.775 1.184 0.829 2.783-0.178 2.546-1.599-5.181-32.002-14.595-63.589-28.301-94.703-22.706-51.6-48.995-99.41-78.835-143.4-0.918-1.362-2.22-2.043-3.848-2.072-34.044-0.533-64.3 9.207-95.088 24.246-4.589 2.22-6.098 0.888-4.589-4.056q0.755-2.442 4.796-6.039c17.111-15.276 36.709-25.341 58.113-33.63 1.332-0.503 1.332-1.066 0.03-1.658-50.12-22.262-100.03-45.797-150.54-63.945q-96.494-34.726-194.59-30.196c-65.543 3.049-133.34 14.447-192.43 40.854-20.812 9.325-42.067 17.821-61.724 29.397-23.742 13.973-47.366 30.433-70.872 49.35-2.102 1.687-1.806 2.339 0.859 1.924l21.67-3.375c0.78085-0.1238 1.5045-0.4856 2.072-1.036 7.993-7.993 17.91-14.595 29.752-19.835q44.717-19.716 80.375-32.061c80.612-27.887 165.49-36.916 254.68-27.088 14.832 1.628 29.041 4.47 42.689 8.496 0.681 0.207 1.066 0.859 0.918 1.539l-0.178 0.799c-0.296 1.451-1.184 2.072-2.635 1.895-59.474-6.72-116.61-3.73-171.47 8.94q-60.037 13.899-118.3 43.695c-1.421 0.74-1.362 0.859 0.178 0.415 45.945-13.618 94.229-23.358 144.88-29.219 28.509-3.286 57.017-4.233 85.585-2.812 1.066 0.059 1.628 0.622 1.658 1.687l0.03 0.918c0.033141 0.4962-0.33403 0.92892-0.829 0.977-15.305 1.569-26.851 3.286-34.577 5.121-32.535 7.697-64.152 17.229-94.792 28.627q-1.554 0.577-1.066 2.131l0.237 0.829c0.089 0.266 0.237 0.355 0.503 0.296 44.317-10.332 89.049-15.187 134.14-14.565 1.598 0.03 2.457 1.865 1.48 3.108-0.859 1.066-2.22 1.895-4.115 2.457-16.282 5.003-32.653 10.628-49.143 16.874-1.865 0.71-1.835 1.243 0.148 1.569 8.556 1.48 16.578 3.641 25.341 1.895 25.607-5.062 52.517-6.395 80.76-3.937 0.52221 0.054173 0.99417 0.33524 1.2906 0.76858 0.2964 0.43334 0.38725 0.97509 0.24842 1.4814-0.237 0.918-0.799 1.51-1.717 1.806-12.937 4.233-25.726 8.23-38.308 11.93-1.924 0.563-1.895 1.095 0.059 1.539 8.4396 2.0149 16.745 4.5558 24.867 7.608 75.934 28.568 139.73 72.352 191.33 131.29 75.401 86.118 115.96 187.25 121.61 303.32q3.064 62.523-4.53 115.54c-12.67 88.871-46.508 176.17-91.772 254.83-32.357 56.158-69.658 119.19-111.96 189.05-52.577 86.858-100.83 183.13-124.81 280.17-0.859 3.463 0.326 4.44 3.582 2.931l26.14-12.375c1.3353-0.62835 2.0139-2.1358 1.599-3.552-4.707-15.897 0.059-31.913 6.069-46.774 32.179-79.487 72.233-154.32 120.13-224.52 22.854-33.482 47.189-66.431 68.622-100.39 21.299-33.79 41.674-68.153 61.103-103.05 2.28-4.115 6.365-12.404 12.227-24.867 0.31618-0.66399 1.0819-0.98304 1.776-0.74l0.711 0.267c1.036 0.415 1.628 1.539 1.332 2.605-3.9607 14.596-8.7144 28.966-14.24 43.044-19.272 49.172-41.031 95.68-67.349 143.19-20.604 37.242-37.36 68.237-50.297 92.957-18.591 35.613-34.814 71.286-48.639 107.02-1.51 3.849-1.066 4.085 1.302 0.71 64.478-92.394 115.01-186.15 171.14-290.74 0.622-1.155 1.54-1.51 2.753-1.095zm-382.72-644.68c0.031442-0.24062 0.17014-0.45407 0.37724-0.58055 0.2071-0.12648 0.46033-0.15238 0.68876-0.070454 73.21 27.413 133.07 80.345 161.16 154.5q0.222 0.577 0.8 0.355h0.029c0.296-0.118 0.385-0.326 0.296-0.651-22.647-62.553-55.596-119.1-98.848-169.69-0.592-0.71-0.237-1.806 0.651-2.013 0.74-0.148 1.391-0.03 2.013 0.385 55.626 37.271 97.456 89.404 127.15 149.94 20.338 41.535 37.242 86.888 50.682 136.06 4.292 15.779 7.105 27.798 8.378 36.057 0 0 0.089 0.03 0.237 0.089l0.71 0.237c0.237 0.089 0.355 0 0.355-0.237 2.753-82.447-11.368-161.22-42.333-236.39-0.385-0.918-0.089-1.451 0.918-1.539l0.829-0.089c1.391-0.148 2.457 0.385 3.138 1.599 33.719 58.231 56.751 117.56 69.096 177.92 0.089 0.385 0.296 0.533 0.681 0.474h0.03c0.415-0.059 0.592-0.296 0.563-0.681-4.5-63.945-18.473-129.04-47.278-184.37-15.187-29.16-31.972-56.425-50.416-81.855-0.622-0.858-0.059-2.043 0.977-2.161 1.4295-0.15441 2.8692 0.17935 4.085 0.947 10.42 6.483 19.923 14.091 28.538 22.766 45.205 45.679 76.438 98.848 93.726 159.51 11.161 39.107 17.762 80.878 19.864 125.25 1.302 27.384 1.095 52.162-0.651 74.395-0.563 7.283-0.74 14.18-0.503 20.723 0 0.178 0.059 0.207 0.177 0.059 0.053112-0.07872 0.064318-0.17846 0.03-0.267-0.059-0.118-0.089-0.237-0.059-0.355 13.055-69.569 17.17-143.93 5.477-214.3-23.417-140.8-124.81-265.58-261.11-315.04-80.611-29.219-163.03-41.238-248.82-41.801-69.155-0.444-139.46 4.204-210.9 13.943-42.363 5.802-82.832 10.924-121.38 15.365-53.494 6.158-106.16 2.724-157.94-10.302-0.977-0.237-1.954 0.326-2.191 1.302-14.328 54.264-35.377 106.28-63.175 156.07-13.292 23.772-26.999 46.449-41.179 68.089-28.153 42.955-56.988 86.059-86.444 129.34-47.722 70.043-88.752 147.43-103.2 228.57-22.41 125.61 22.44 247.84 96.272 348.68 1.895 2.575 4.411 4.47 7.519 5.743 12.789 5.121 25.548 10.272 38.307 15.394 3.079 1.243 3.819 0.414 2.191-2.457-27.857-49.587-52.458-100.36-73.803-152.25-9.651-23.476-17.999-48.698-25.045-75.727-0.15686-0.55487 0.1586-1.1334 0.71-1.302l1.007-0.355c0.918-0.326 1.924 0.148 2.309 1.036 10.717 25.312 21.966 49.438 33.778 72.382q29.885 58.083 68.918 109.15 4.796 6.306 1.51-0.888c-27.502-59.771-51.304-120.13-71.346-181.09-0.099853-0.31002-0.071595-0.6471 0.07848-0.93616 0.15007-0.28907 0.40951-0.50613 0.72052-0.60284l0.947-0.267c0.355-0.089 0.622 0 0.799 0.326 17.837 33.043 37.658 64.975 59.356 95.621 1.806 2.516 2.191 2.309 1.214-0.622-4.056-12.019-7.963-22.617-11.782-31.824-13.055-31.558-29.101-69.451-48.195-113.71-0.326-0.77-0.148-1.658 0.474-2.191l0.622-0.533c0.207-0.178 0.563-0.148 0.71 0.089 23.269 36.857 45.916 71.73 67.911 104.65 2.368 3.523 2.753 3.316 1.184-0.622-14.828-37.142-29.946-74.168-45.353-111.07-0.296-0.74 0.148-1.569 0.918-1.717 1.095-0.207 1.954 0.118 2.635 0.977 20.16 26.022 40.646 50.564 61.517 73.684q1.199 1.332 1.954-0.267c1.125-2.279 1.095-4.5-0.059-6.661-8.881-16.608-20.249-35.85-34.133-57.757-11.042-17.437-35.643-44.317-58.349-41.238-22.617 3.02-30.196-13.855-30.492-33.097-0.563-36.472 3.434-74.543 12.049-114.24 12.315-56.869 38.219-108.73 77.74-155.6 13.943-16.549 30.788-33.512 50.475-50.948 3.108-2.753 5.921-5.891 8.112-9.384 14.527-23.119 29.36-46.044 44.495-68.77 30.729-46.182 55.33-93.519 76.822-144.59 1.806-4.293 3.227-4.174 4.322 0.355q0.489 1.999 0.355 4.174c-0.651 13.233-2.427 25.489-5.299 36.709-10.924 42.482-26.969 82.862-48.195 121.14-2.872 5.21-2.102 5.862 2.368 1.924 13.884-12.138 26.762-25.607 38.663-40.439 22.232-27.65 43.429-57.461 63.619-89.404 3.552-5.654 4.974-5.151 4.293 1.48q-3.065 29.708-14.565 63.767c-1.214 3.582-0.622 3.908 1.806 1.036 4.589-5.447 9.414-10.391 14.476-14.802 14.95-13.026 28.923-26.91 41.889-41.682 1.155-1.303 3.316-0.533 3.345 1.214 0.028153 1.5855-0.15103 3.1679-0.533 4.707-3.789 15.72-8.141 30.877-13.026 45.472-0.74 2.161-0.267 2.457 1.391 0.859 14.121-13.736 30.285-25.667 48.551-35.821 1.776-1.007 3.967 0.385 3.819 2.427-0.858 12.522-3.256 23.417-7.164 32.624-0.8185 1.9132-1.5591 3.8588-2.22 5.832q-3.42 10.214 3.907 2.309 13.367-14.52 31.439-25.755c1.273-0.77 2.872 0.178 2.842 1.658-0.266 8.2-1.746 15.868-4.5 23.062-0.385 0.977 0.326 2.043 1.362 2.072l27.236 0.681c1.155 0.03 2.191-0.326 3.108-1.036 1.8542-1.4559 3.569-3.0813 5.122-4.855 0.622-0.71 1.391-1.154 2.368-1.332 0.503-0.089 0.977-0.118 1.48-0.089 1.569 0.089 1.983 0.829 1.273 2.22l-2.398 4.796c-0.27635 0.55272-0.24625 1.2092 0.0795 1.7343 0.32575 0.52512 0.90055 0.84371 1.5185 0.84166q59.104 0.089 108.08 20.249c0.918 0.385 1.747 0.267 2.516-0.355 32.801-26.229 66.313-61.813 69.628-106.13 0.326-3.996 0.059-6.75-0.77-8.2-6.246-10.865-10.213-18.947-6.927-30.877 4.056-14.772 17.407-23.328 32.328-23.565 15.69-0.267 30.877 9.177 44.198 16.667 41.209 23.18 75.816 52.754 103.79 88.723 27.413 35.199 51.067 72.115 70.931 110.72 0.90707 1.7357 2.6138 2.9105 4.559 3.138 22.706 2.635 43.311 9.444 61.843 20.427 5.329 3.168 6.039 2.339 2.161-2.487-21.759-27.117-46.36-50.948-73.773-71.523-1.035-0.804-1.449-1.87-1.242-3.232m908.22 34.756c-2.575-0.148-4.885-1.095-6.957-2.842-20.516-17.378-42.866-29.249-66.994-35.614q-8.66-2.309-1.332 2.842c26.881 18.887 53.169 40.676 78.895 65.365 22.647 21.788 41.534 47.929 60.54 72.352 3.671 4.677 14.18 17.881 12.907 23.861-0.24263 1.1384-0.93843 2.1288-1.9271 2.7432-0.98864 0.61431-2.1848 0.79948-3.3129 0.51284-13.085-3.345-25.193-5.299-39.107-4.914q-40.01 1.065-78.065 9.858c-2.99 0.681-2.931 1.095 0.118 1.214 40.676 1.539 81.322 19.894 118.65 37.271 6.809 3.168 13.233 5.27 19.302 6.276 14.24 2.368 29.545 5.329 42.57 11.575 2.517 1.184 2.724 4.677 0.385 6.187-7.579 4.825-31.676-2.576-40.113-5.595-5.832-2.102-12.137-3.227-18.947-3.375q-63.19-1.554-112.44 4.974c-31.499 4.145-62.672 12.967-93.49 26.495q-2.175 0.932 0.178 0.533c64.862-11.131 129.72-13.174 194.65-6.128 33.985 3.701 66.609 10.657 97.841 20.871 5.713 1.865 5.654 3.671-0.119 5.388-0.858 0.266-3.079 0.444-6.69 0.533-57.402 1.54-115.99 3.76-173.01 12.552-45.59 7.016-87.657 19.835-126.23 38.396-4.5 2.161-4.293 2.812 0.651 1.954 37.626-6.72 77.888-11.279 116.4-9.385 4.53 0.207 5.063 1.776 1.569 4.707-0.562 0.474-2.28 0.918-5.121 1.303-41.001 5.595-76.112 19.302-112.29 37.775-1.2668 0.65631-2.0482 1.9777-2.013 3.404 1.421 48.521-4.648 96.894-18.177 145.15-22.529 80.404-59.09 157.46-111.72 221.17-5.358 6.483-11.457 12.078-17.052 18.177-1.095 1.214-0.888 1.599 0.681 1.095 40.883-12.937 85.052-16.785 126.62-9 40.705 7.608 78.332 27.236 112.91 58.912 6.542 6.01 11.96 13.085 16.223 21.226 12.582 24.038-7.964 52.31-35.436 40.913-8.851-3.671-17.703-7.46-27.058-9.236-31.232-5.95-61.813 5.713-80.76 31.291-18.236 24.66-30.61 56.691-40.883 85.407-0.355 1.007 0.533 2.013 1.569 1.806 10.924-2.072 21.848-4.145 32.712-6.187 17.141-3.227 36.975-9.207 59.504-17.881 21.86-8.4381 43.64-17.083 65.336-25.933 3.049-1.243 6.513-2.131 10.361-2.635 2.368-0.296 3.967 2.339 2.605 4.292-2.3325 3.3794-4.9898 6.5227-7.934 9.385-28.864 28.035-59.504 52.517-91.95 73.507-26.999 17.466-59.563 33.156-91.92 22.617-0.52204-0.17128-1.0909-0.12693-1.58 0.1232-0.48918 0.25013-0.85817 0.68531-1.025 1.2088-3.227 9.651-7.135 19.805-11.753 30.492-0.563 1.273 0.385 2.665 1.777 2.635 23.957-0.71175 47.808-3.4951 71.286-8.319 108.35-22.292 198.52-75.194 270.52-158.74 52.103-60.451 83.75-131.59 95.206-212.85 13.944-98.877 7.638-199.29 19.864-301.72 5.98-49.972 19.509-94.555 48.314-135.47 0.30995-0.44709 0.39296-1.0134 0.22434-1.5306-0.16862-0.51723-0.56944-0.92583-1.0833-1.1044-12.878-4.47-24.867-10.125-35.939-16.933-61.399-37.775-108.26-92.956-147.69-155.92-39.876-63.678-72.618-120.16-121.08-169.93-19.805-20.338-40.261-35.436-61.369-45.353-15.827-7.4212-31.646-14.862-47.455-22.321-1.184-0.563-2.457 0.503-2.161 1.776q5.995 24.735 8.171 51.067c0.1143 1.367 1.0733 2.5156 2.398 2.872 5.062 1.391 9.799 3.76 14.21 7.135 50.505 38.752 92.69 77.799 132.68 126.02q4.04 4.929 5.773 9.769c0.17095 0.45238 0.10079 0.96059-0.18632 1.3497-0.28711 0.38915-0.752 0.60613-1.2347 0.57626m-1042.4 73.536c0.71-0.326 1.421-0.326 2.161 0 29.397 12.937 56.514 39.906 70.872 67.763 1.747 3.405 2.191 3.227 1.391-0.503-9.029-40.972-29.929-89.078-64.122-115.6-0.326-0.266-0.355-0.563-0.148-0.888l0.444-0.681c0.503-0.799 1.184-0.977 2.013-0.533 28.805 15.098 49.912 38.722 65.987 66.727 2.605 4.529 3.108 4.322 1.51-0.681q-21.581-67.541-61.369-108.62c-10.983-11.338-9.68-12.996 3.908-4.944 54.679 32.475 91.269 100.71 104.35 161.34 4.411 20.338 7.667 43.636 9.828 69.895 3.227 39.58 4.085 75.076 2.576 106.43-0.415 8.704 4.292 15.69 7.756 22.973 0.296 0.622 1.214 0.533 1.362-0.148 8.704-40.972 13.144-80.996 13.292-120.07 0.118-25.696-3.375-50.712-10.45-75.016-23.091-79.279-63.441-146.54-121.08-201.81-16.637-15.956-33.363-27.857-50.208-35.673q-27.22-12.611-51.156-24.779c-0.918-0.444-1.983-0.03-2.339 0.918-11.516 30.166-28.509 56.484-51.037 78.954-14.713 14.684-27.236 26.052-37.538 34.133-28.923 22.617-56.484 45.827-82.743 69.658-49.143 44.554-81.115 110.28-74.01 177.39 0.148 1.273 0.563 2.427 1.302 3.493 0.237 0.355 0.74 0.355 1.007 0 9.1786-12.779 19.753-24.496 31.528-34.932 1.6295-1.4429 3.1166-3.0389 4.441-4.766 0.651-0.858 0.888-1.806 0.74-2.842-1.451-9.266 0.592-19.953 6.098-32.031 12.996-28.538 30.107-49.231 52.428-70.517 0.651-0.651 1.747-0.562 2.309 0.178 0.267 0.385 0.444 0.799 0.474 1.273 0.029435 0.59663-0.10363 1.1901-0.385 1.717-11.427 20.575-19.391 43.103-23.92 67.586-0.355 1.924-0.533 3.789-0.503 5.625 0 0.859 0.947 1.391 1.687 0.918 66.816-41.475 153.64-66.076 231.59-43.459 2.22 0.622 2.575 0.089 1.066-1.658l-22.766-26.17c-1.48-1.717-0.947-4.381 1.095-5.358 6.01-2.901 19.094 2.812 24.808 5.802q26.51 13.987 42.008 36.768c4.263 6.247 5.121 5.832 2.546-1.303-8.585-23.683-21.641-45.353-39.136-65.01-0.20673-0.23191-0.29069-0.54839-0.22612-0.85229 0.06457-0.30389 0.26996-0.55889 0.55312-0.68671m-453.32 146.81c-0.622 25.371 1.688 49.439 7.282 79.25 8.141 43.459 30.759 82.743 57.935 118.65 0.681 0.918 1.45 0.977 2.25 0.177 0.74-0.74 0.888-1.569 0.444-2.516-22.913-49.32-34.577-105.39-38.9-159.56-1.628-20.16-0.858-38.692-0.325-58.409 0.03-0.326 0.266-0.592 0.592-0.592l0.858-0.03c1.036-0.03 1.628 0.503 1.747 1.539 4.707 45.561 17.052 96.006 39.048 138.34 2.605 5.033 3.197 4.796 1.806-0.681-12.819-50.12-15.217-100.59-7.253-151.36 2.487-15.868 6.217-30.699 11.19-44.465 1.0205-2.798 2.4794-5.416 4.322-7.756 2.161-2.753 3.02-2.398 2.546 1.066-5.477 40.054-6.868 82.21 4.914 121.5 1.155 3.819 1.599 3.73 1.391-0.266-0.888-15.986-1.332-31.795 1.391-47.958 7.135-42.156 24.157-80.878 51.096-116.14 27.769-36.383 66.609-63.264 102.58-90.825 1.421-1.095 1.244-1.569-0.563-1.48-24.927 1.51-48.373 3.641-70.339 6.365-91.091 11.279-191.72 57.787-234.97 143.58-33.275 66.046-24.867 145.47 7.845 209.62 0.799 1.599 1.451 2.664 1.924 3.227 1.243 1.451 1.717 1.243 1.451-0.651q-7.505-50.223-0.444-99.736c2.042-14.18 5.98-28.035 11.871-41.534 0.681-1.599 2.724-2.013 3.878-0.799 0.267 0.266 0.355 1.125 0.326 2.546-0.74 34.844-1.125 67.911 7.401 101.72 10.806 42.837 29.87 86.088 53.613 123.92 0.266 0.385 0.592 0.474 1.007 0.267h0.03c0.296-0.178 0.385-0.414 0.267-0.74-16.193-38.396-27.206-77.178-33.068-116.31-5.417-36.058-5.151-72.293 0.799-108.68q0.31-1.91 2.043-2.664c1.391-0.595 2.042-0.121 2.013 1.389m231.8 555.07c-1.036 0.148-3.168 0-6.394-0.503-14.95-2.25-30.314-6.572-46.094-12.937-26.732-10.776-53.761-23.594-81.085-38.426-5.566-3.02-9.444-5.654-11.605-7.875-3.967-4.115-8.141-8.141-14.387-8.26-7.46-0.148-14.328-0.681-20.634-1.599-2.043-0.325-2.339 0.267-0.888 1.747 43.399 43.755 88.96 79.072 150.3 90.706 45.708 8.645 87.006 7.697 132.62 8.822 48.402 1.184 94.821 10.509 139.26 28.005 2.783 1.095 3.138 0.533 1.066-1.628-56.691-59.563-128.3-107.88-200.63-147.1-47.617-25.845-95.309-51.551-143.08-77.118-132.09-70.694-244.85-202.31-256.31-356.88-5.121-68.948 11.575-129.25 50.06-180.94 1.539-2.043 1.184-2.427-1.036-1.154-87.272 50.682-155.75 123.66-179.13 223.07-4.796 20.397-8.733 40.409-11.812 60.096-0.148 0.859 0.799 1.48 1.539 1.036 20.782-12.374 52.192-25.963 76.319-24.601 5.891 0.326 6.128 1.599 0.651 3.819-28.775 11.782-61.487 33.512-77.918 61.635-0.12691 0.202-0.16387 0.44776-0.102 0.67816s0.21697 0.42458 0.428 0.53584q39.121 20.915 65.277 54.619c45.827 59.06 90.558 113.56 150.51 158.17 26.555 19.746 52.369 34.873 77.385 45.324 23.683 9.917 48.403 13.677 74.365 13.174q14.431-0.266 31.884 2.22c3.404 0.474 6.542 1.421 9.444 2.872 0.888 0.444 1.598 1.184 1.954 2.102 3.701 9.503-8.348 18.118-15.275 22.144-0.859 0.503-0.977 1.747-0.237 2.428 15.749 14.24 32.327 28.538 50.119 39.728 17.566 11.064 35.709 21.183 54.353 30.314 5.949 2.901 5.623 4.825-0.919 5.773m364.13-154.39c1.362-2.22 3.138-3.996 5.358-5.329 10.569-6.365 20.723-12.759 30.463-19.213 55.182-36.383 103.26-90.529 126.32-153.14 11.694-31.706 20.427-63.234 19.598-96.213-0.177-7.312-3.108-13.944-4.204-21.167-2.339-15.128-5.625-29.781-9.829-43.962-22.913-77.355-61.043-145.74-124.87-194.73-6.513-5.003-12.878-10.45-19.716-14.802-1.924-1.214-2.487-0.77-1.717 1.391 19.154 52.991 28.183 105.04 22.351 161.61-4.707 45.797-11.131 91.447-19.243 137.01-1.243 6.987-1.628 14.595-1.125 22.795 0.563 9.296-6.513 15.276-8.467 24.157-10.717 49.172-24.068 99.854-40.025 152.08-16.785 54.915-29.397 107.17-30.433 161.34-0.651 33.778 4.263 68.415 14.713 103.85 0.296 1.006 1.599 1.302 2.28 0.503 2.072-2.28 3.937-5.092 6.158-7.164 28.035-26.14 56.691-54.087 85.97-83.809 41.771-42.423 81.085-91.032 87.213-148.05 1.865-17.496 2.309-37.123 1.302-58.941-0.059-1.451-0.563-1.628-1.539-0.533-11.102 12.256-22.825 23.476-35.169 33.689-0.977 0.799-1.273 1.806-0.888 2.99 3.316 10.273 3.168 19.805-0.474 28.568-17.377 42.008-43.577 79.812-78.628 113.47-3.6402 3.5057-7.8559 6.3596-12.463 8.437-0.5902 0.2541-1.2636 0.22818-1.8325-0.070546-0.56892-0.29873-0.97258-0.83833-1.0985-1.4685-0.266-1.391 0-2.665 0.77-3.819 9.207-13.944 17.94-27.739 26.14-41.386 14.24-23.772 24.512-48.906 30.759-75.46 0.385-1.717-0.118-2.072-1.569-1.066-19.242 13.588-40.38 23.446-63.796 22.706q-4.797-0.132-2.31-4.262m-208.23-347.99c2.723-5.595 3.73-5.299 2.99 0.888-4.352 36.531-14.003 73.24-28.953 110.16-1.835 4.529-1.184 4.944 1.983 1.184q51.378-61.014 62.346-141.57 0.222-1.555 1.776-1.954c1.036-0.266 1.569 0.148 1.658 1.184 5.329 59.682-7.667 124.48-42.038 174.22-1.983 2.842-1.421 3.493 1.658 1.924 18.502-9.503 31.439-30.018 41.208-47.307 18.325-32.535 31.706-65.099 40.114-97.723 0.355-1.421 2.042-2.013 3.227-1.125 5.536 4.056 9.177 10.214 10.865 18.443 8.2 39.788-6.957 81.47-32.594 111.96-2.161 2.576-1.777 3.049 1.154 1.391 22.588-12.552 44.376-33.511 53.82-57.343 12.552-31.706 13.056-71.079-0.177-101.04-29.219-66.135-121.05-71.878-180.7-56.988-61.339 15.305-124.13 50.534-161.73 102.58-32.002 44.258-45.235 95.236-39.728 152.93 0.03 0.267 0.059 0.267 0.148 0.03 19.006-67.586 52.665-131.15 111.55-170.34 18.65-12.404 38.722-24.63 58.912-36.413 0.622-0.355 1.036-0.207 1.273 0.474 0.326 0.918 0.237 1.776-0.266 2.605-8.674 14.18-18.887 28.805-30.64 43.814-0.799 1.036-0.592 2.516 0.503 3.256 3.997 2.753 7.52 6.128 10.539 10.184 0.859 1.154 1.776 1.214 2.783 0.207 17.496-17.614 33.156-36.058 47.011-55.389 0.266-0.385 0.592-0.651 1.036-0.799 0.4735-0.1762 0.98879-0.20718 1.48-0.089 0.563 0.148 0.77 0.503 0.652 1.066-7.697 34.281-20.131 69.421-38.929 98.048-1.983 3.049-1.51 3.523 1.48 1.421 19.894-14.003 37.893-30.433 53.998-49.32 0.651-0.77 1.48-1.243 2.457-1.391 0.38301-0.070434 0.77507 0.063511 1.0349 0.35357 0.25985 0.29006 0.35004 0.69444 0.23808 1.0674-9.147 29.604-18.68 59.001-32.742 83.957-1.687 2.99-1.243 3.375 1.392 1.155 8.23-6.868 16.223-16.105 22.292-24.956 17.623-25.718 33.306-52.712 46.92-80.759m-1192.7 401.52c-1.095-0.326-1.273-1.836-0.266-2.368 12.463-6.779 25.785-11.338 39.965-13.647 43.725-7.075 88.22-11.96 132.95-7.46q27.399 2.753 57.106 4.707c4.589 0.296 8.911-0.118 12.996-1.214 1.628-0.444 1.628-0.888 0.03-1.332-38.84-11.457-76.023-19.894-111.58-25.341-92.039-14.151-189.58 0.888-275.46 36.591-2.4432 1.0007-4.7913 2.2193-7.016 3.641-6.187 3.967-7.431 2.783-3.76-3.582 1.628-2.812 3.819-5.388 6.572-7.697 25.282-21.197 52.399-34.074 83.306-46.833 63.649-26.288 129.75-40.498 198.29-42.659 3.996-0.118 7.342 0.651 11.22 0.71 2.339 0.059 2.428-0.296 0.207-1.095q-55.64-19.85-115.54-15.187c-49.054 3.819-96.834 15.453-143.4 34.844-1.924 0.799-3.108 0.858-3.582 0.237-0.947-1.273-0.77-3.079 0.385-4.204 8.467-8.2 17.94-15.335 28.39-21.404 57.343-33.275 122.83-58.971 188.04-64.714 0.059 0 0.089-0.059 0.089-0.089 0-0.059-0.03-0.118-0.089-0.118-19.835-3.967-39.196-11.635-58.497-14.506-34.814-5.24-74.128 3.405-108.17 15.661-8.26 2.96-9 1.658-2.22-3.878 42.393-34.814 89.167-60.215 142.57-67.467q2.354-0.31 0.266-1.421c-19.42-10.213-42.659-10.598-64.714-7.815-20.989 2.694-41.15 6.72-60.481 12.137-7.697 2.131-12.996 6.483-17.703 12.878-1.983 2.664-6.039 2.487-7.727-0.385-4.115-7.016 3.286-27.324 6.276-33.452 23.121-47.277 52.636-93.045 89.818-130.64 10.243-10.332 21.789-18.473 34.607-24.423 1.391-0.622 2.072-1.717 1.984-3.227l-2.013-36.975c-0.089-1.421-1.717-2.161-2.842-1.273-41.86 32.86-78.835 68.829-105.72 114.6-29.87 50.771-48.995 110.28-68.592 166.94-27.324 78.983-69.747 148.97-127.3 209.92-0.651 0.681-0.592 1.806 0.118 2.427 38.485 32.949 71.316 72.026 98.463 117.17q33.793 56.218 66.343 124.51c43.755 91.802 93.667 188.37 172.32 254.86 0.859 0.711 2.161 0.119 2.161-1.006-0.089-12.848 0.474-25.074 1.628-36.679 0.089-1.095-0.207-2.043-0.888-2.872-2.398-2.842-6.306-4.026-8.822-6.69-6.01-6.306-11.457-13.559-16.401-21.729-18.029-29.87-31.883-63.027-41.564-99.439-0.11503-0.42767-0.015592-0.88456 0.26677-1.2257 0.28236-0.34118 0.7126-0.5243 1.1542-0.49127 1.006 0.089 1.776 0.533 2.309 1.391 18.858 29.486 42.482 54.235 70.842 74.217 1.51 1.095 2.487 0.71 2.901-1.095 17.466-75.727 65.839-139.44 128.18-185.41 33.038-24.364 78.924-51.037 119.6-54.442 0.14199-0.010931 0.26493-0.10281 0.31564-0.23589 0.050707-0.13308 0.020078-0.28347-0.078637-0.38611-51.807-53.139-110.72-97.634-176.71-133.48-19.213-10.42-36.117-18.621-50.712-24.63-5.329-2.161-10.953-2.368-16.578-2.309-1.776 0.03-3.108-1.599-2.723-3.316 0.977-4.648 4.026-8.112 9.089-10.391 1.184-0.533 1.095-2.25-0.119-2.635-30.906-9.977-63.767-15.039-98.581-15.246-3.522-0.034-7.637 1.653-10.923 0.676m1220.4 9.503c3.937 0.326 8.141 0.77 12.67 1.273 22.706 2.576 47.366-2.339 63.027-21.788 2.842-3.523 2.013-5.063-2.487-4.559-9.503 1.007-18.739 2.427-28.183 2.783-25.578 0.977-52.281-1.391-80.138-7.075-1.895-0.385-2.96-2.398-2.161-4.145 0.267-0.563 1.391-0.917 3.375-1.007 28.272-1.45 54.175-7.667 77.681-18.709 4.174-1.954 3.938-2.753-0.651-2.428-30.048 2.309-58.202-1.569-84.519-11.605-6.691-2.546-6.454-4.026 0.681-4.44 4.115-0.237 8.674 0 13.647 0.71 13.085 1.865 28.272 1.54 45.561-0.918 19.568-2.812 36.265-11.516 50.06-26.111 1.302-1.391 1.036-1.865-0.829-1.45q-56.928 12.256-115.72-2.664-1.733-0.399-2.931-1.599c-1.066-1.036-0.266-2.812 1.214-2.724 28.035 1.776 55.093-0.651 81.115-7.312 24.187-6.187 44.317-18.354 60.333-36.472 1.983-2.22 1.539-2.901-1.303-2.043-47.218 14.625-94.348 15.897-141.39 3.849-0.533-0.148-0.858-0.474-0.947-1.007-0.053118-0.25283-0.06326-0.5128-0.03-0.769 0.148-0.977 0.74-1.451 1.717-1.392 28.213 1.688 56.633-1.924 85.289-10.835 22.351-6.957 41.653-17.555 57.965-31.795q3.108-2.709-0.71-1.155c-48.166 19.568-97.249 28.301-148.08 15.897-1.125-0.266-1.658-1.007-1.628-2.19v-0.74c0.03-0.651 0.622-1.184 1.273-1.125 29.101 2.309 55.833 0.474 80.167-5.536 30.818-7.579 71.257-27.177 84.519-58.675 2.339-5.595 1.392-6.217-2.901-1.924-14.062 14.062-36.531 24.038-55.241 29.278-37.893 10.569-76.289 12.848-115.1 1.125-0.48446-0.13609-0.91092-0.4273-1.214-0.829-0.24633-0.33463-0.41787-0.71829-0.503-1.125-0.207-1.214 0.326-1.865 1.539-1.983 8.733-0.799 17.496-1.303 26.318-1.451 44.081-0.799 88.664-21.315 124.75-45.797 19.627-13.322 32.002-29.574 45.975-48.018 1.48-1.954 4.53-1.51 5.417 0.77 0.177 0.474 0.296 1.036 0.326 1.687 0.042838 1.1076 0.50884 2.1567 1.302 2.931l23.239 24.038c0.237 0.266 0.681 0 0.563-0.326-9.325-29.574-20.723-60.126-34.222-91.624-0.622-1.45-1.125-1.421-1.451 0.118-7.253 32.624-20.871 65.632-44.672 88.249-38.929 36.975-83.305 55.33-133.19 55.063-22.41-0.089-41.357-3.73-56.84-10.865-33.689-15.542-50.179-44.85-62.08-78.214-0.1743-0.49294-0.58738-0.86335-1.0963-0.98311-0.50895-0.11975-1.0439 0.02761-1.4197 0.39111-27.117 26.436-47.248 54.945-60.51 90.855q-19.983 53.998-26.732 107.46c-0.14945 1.2338 0.47353 2.4329 1.569 3.02 68.355 36.739 133.48 70.961 202.55 114.42 53.613 33.778 100.06 72.115 139.29 115.04 1.421 1.539 1.865 1.302 1.362-0.71l-8.022-31.943c-0.563-2.279-1.865-3.996-3.908-5.21-14.654-8.585-28.302-18.118-40.913-28.627q-7.77-6.483 2.22-4.885c11.457 1.806 23.802 2.96 37.094 3.404q1.732 0.045 1.688-1.688l-0.237-7.608c-0.03-1.243-0.977-2.28-2.22-2.457-27.562-3.405-51.748-9.621-72.619-18.621-10.245-4.408-9.801-6.154 1.301-5.207m1467.4-227.09c0.385 0.533 0.355 1.273-0.089 1.747-35.626 40.599-69.657 82.569-102.02 125.82-6.128 8.17-13.766 15.276-22.943 21.344-1.924 1.302-2.99 3.108-3.197 5.447l-1.628 20.101c-0.207 2.368 0.563 2.723 2.28 1.095 54.471-51.422 108.11-98.433 166.08-145.83 86.473-70.724 179.49-130.17 285.18-167.17 0.711-0.237 0.563-1.303-0.178-1.332-58.379-3.079-114.39 8.556-168.86 28.331-67.112 24.364-133.57 60.126-199.38 107.31-26.022 18.651-52.961 39.255-80.819 61.843-1.3682 1.1023-2.1539 2.7722-2.131 4.529l0.563 35.791c0 0.503 0.592 0.74 0.947 0.415 39.166-36.265 80.641-69.658 124.49-100.12 0.532-0.355 1.095-0.118 1.716 0.681m-1069.9 121.38c0.237 0.118 0.325 0.296 0.237 0.503-14.388 42.215-32.831 82.773-49.587 124.1-0.089 0.207-0.03 0.325 0.148 0.414h0.03c0.207 0.089 0.385 0.059 0.503-0.148 26.002-46.441 51.689-93.059 77.059-139.85 0.77194-1.4095 0.82689-3.1024 0.148-4.559-6.158-13.352-8.111-30.196-9.118-44.613-1.924-27.443-7.312-52.458-16.993-78.865-0.592-1.688-2.22-2.812-4.026-2.812-2.99 0.03-5.388-1.155-7.135-3.612-0.681-0.918-2.131-0.711-2.487 0.385-9.977 30.285-24.334 57.876-43.044 82.713-1.006 1.332-0.918 2.605 0.237 3.819l1.954 2.043q1.909 1.954 3.464-0.266c9.799-13.825 21.315-28.065 34.548-42.659 0.563-0.622 1.214-0.888 2.013-0.829 1.954 0.148 2.635 1.155 2.013 3.02-8.3943 25.852-17.019 51.628-25.874 77.325q-0.755 2.176 0.444 4.352c0.503 0.888 1.006 0.888 1.51 0.03l22.173-37.034c2.28-3.76 3.227-3.464 2.901 0.918-0.237 3.049-0.592 5.802-1.095 8.289-4.293 21.522-11.605 43.488-21.937 65.869-2.753 5.95-4.618 11.901-5.654 17.851-2.398 13.677-6.365 27.177-11.871 40.528-0.148 0.326-0.059 0.592 0.267 0.74h0.03c0.296 0.148 0.533 0.059 0.681-0.207 14.678-26.052 29.868-51.812 45.561-77.266 0.503-0.799 1.184-1.006 2.043-0.592zm-896.44 136.77c0.71418-0.21673 1.483-0.16407 2.161 0.148 36.739 15.69 70.102 28.656 100.03 38.929 3.641 1.243 3.878 0.77 0.77-1.451-4.7385-3.3356-9.6176-6.4668-14.624-9.385-33.837-19.687-69.362-37.715-98.137-64.803-0.40129-0.36854-0.58926-0.91485-0.49968-1.4523 0.089572-0.53743 0.44456-0.99325 0.94368-1.2117 0.444-0.207 0.888-0.177 1.332 0.03 31.41 15.809 65.277 27.502 101.6 35.051q1.554 0.31 0.533-0.888c-1.125-1.332-2.368-2.546-3.76-3.582-16.667-12.582-32.328-23.535-47.011-32.831q-30.285-19.184-48.047-33.482c-25.785-20.812-48.077-44.347-66.905-70.605q-1.42-1.998-1.599 0.444-5.595 75.268 10.391 144.41c2.576 11.16 5.684 22.913 9.325 35.199 3.02 10.184 3.908 18.295 3.434 28.39-0.051717 1.1688 0.68955 2.2262 1.806 2.576 32.979 10.332 65.81 18.621 98.522 24.867 4.145 0.799 4.441 0.059 0.859-2.161-17.377-10.924-34.429-22.647-51.215-35.169q-2.487-1.865-3.197-4.618c-0.24117-0.91647-0.031429-1.893 0.56478-2.6296 0.59621-0.73662 1.5076-1.1453 2.4542-1.1004 9.207 0.474 17.585 2.161 25.075 5.063 38.708 14.934 77.52 29.598 116.43 43.991 0.326 0.119 0.563 0.03 0.71-0.296l0.326-0.74c0.03-0.089 0-0.178-0.089-0.237-40.321-21.404-82.95-44.021-118.03-69.273q-13.677-9.858-24.69-21.315c-0.592-0.623-0.296-1.63 0.533-1.866m2038.1-30.937c-15.66 17.289-28.271 43.074-24.157 66.431 1.717 9.829 12.819 12.611 2.22 24.364-10.864 12.049-21.433 24.63-31.735 37.715-2.487 3.168-2.131 3.493 1.036 1.007 18.68-14.624 43.163-32.594 73.477-53.879 5.743-4.026 11.398-6.661 16.963-7.875 5.625-1.214 6.454 0.266 2.516 4.47-9.828 10.42-18.265 21.966-25.311 34.607-2.457 4.352-1.51 5.299 2.842 2.783 14.744-8.5389 29.078-17.766 42.956-27.65 5.358-3.819 10.361-6.01 15.068-6.513 6.572-0.74 12.996-0.622 19.302 0.415q25.09 4.13 51.067 12.878c30.521 10.273 68.355 23.328 113.53 39.166 7.076 2.487 13.026 5.151 20.812 5.625q22.336 1.377 45.738 3.641c4.322 0.414 4.589-0.415 0.77-2.487-18.229-9.9198-36.535-19.699-54.915-29.337-46.123-24.187-94.94-40.705-146.42-49.528-31.025-5.329-61.665-5.743-93.015-5.95-7.194-0.059-12.493-2.516-15.957-7.371-3.553-5.003-2.694-12.197 1.599-16.43 13.618-13.499 25.015-30.581 34.163-51.215 0.651-1.48 0.208-2.487-1.302-2.99-65.099-22.529-129.25-20.19-192.49 7.016-11.694 5.033-23.506 10.539-35.495 16.519-13.085 6.513-21.788 16.963-33.749 24.838-1.391 0.918-2.339 2.368-2.694 4.026-1.2835 6.4738-3.0044 12.853-5.151 19.094-0.858 2.457-0.148 3.02 2.102 1.688 48.639-28.745 100.09-46.893 154.41-54.471 4.944-0.681 5.27 0.207 0.918 2.665-35.199 20.042-72.056 44.998-97.22 74.898-0.177 0.237-0.177 0.474 0.03 0.681l0.444 0.622c0.13839 0.23937 0.37006 0.41044 0.63955 0.47226 0.26949 0.061826 0.55256 0.0088447 0.78145-0.14626 48.669-31.972 100.51-55.626 155.48-70.961 1.597-0.446 1.834-0.031 0.738 1.182m-1511.5 305.66c3.286 0.622 3.523 1.806 0.711 3.612-20.427 12.818-43.044 24.719-66.047 32.949-11.709 4.1916-23.364 8.5339-34.962 13.026-1.6539 0.64775-3.1705 1.6022-4.47 2.813l-23.742 22.025c-2.013 1.865-1.658 2.813 1.095 2.901 39.225 1.036 76.733-7.579 112.79-24.927 38.781-18.65 72.944-44.583 108.41-64.329 28.746-16.016 59.208-22.617 91.476-25.815 4.085-0.415 4.204-1.362 0.385-2.813-20.22-7.756-40.173-14.002-59.8-18.709-30.936-7.431-70.931-14.684-119.99-21.729-71.79-10.332-137.36-15.75-196.69-16.312-34.37-0.326-68.444-0.563-102.22-0.74-51.067-0.267-101.72-3.908-151.9-10.953-85.052-11.96-167.17-35.258-246.39-69.925-49.722-21.767-99.378-43.684-148.97-65.75-26.792-11.93-57.58-22.351-92.423-31.262-48.58-12.434-101.01-14.535-150.51-12.434-2.072 0.089-2.132 0.533-0.207 1.302 63.915 25.489 122.29 61.399 175.17 107.7 78.48 68.77 154.5 139.91 241.54 192.34 71.582 43.133 147.99 70.635 229.22 82.565 89.937 13.203 184.22-3.612 260.84-52.902 29.367-18.917 57.165-39.314 83.424-61.191 7.194-5.98 15.838-9.71 25.933-11.161 8.467-1.243 18.029 2.368 15.897 12.907-2.339 11.516-6.898 20.93-13.618 28.272-0.474 0.533-0.059 1.362 0.651 1.332 20.249-0.977 40.528-5.151 60.866-12.493 1.153-0.413 2.307-0.502 3.521-0.295m33.097 312.38c0-0.415 0.207-0.622 0.622-0.651 35.554-1.095 71.375-4.292 107.49-9.562 18.414-2.694 36.028-6.276 52.873-10.746 2.753-0.74 2.842-1.687 0.237-2.842-18.947-8.496-34.874-20.249-45.975-37.449-6.217-9.621-0.77-16.49 10.272-14.98 9.207 1.273 16.252 2.724 21.137 4.293 20.633 6.6124 41.317 13.066 62.05 19.361 44.347 13.47 89.286 18.828 134.85 16.016 14.654-0.918 32.623-3.582 53.879-8.022 21.256-4.47 39.699-9.088 55.33-13.914 78.095-24.068 146.1-82.003 195.33-145.56 46.301-59.741 83.601-126.85 119.95-191.6 14.832-26.437 33.245-55.123 54.945-77.266 18.74-19.124 42.452-32.357 71.138-39.669 2.398-0.622 2.516-1.539 0.296-2.694-81.381-43.044-172.24-15.217-249.5 24.749-23.535 12.167-43.281 23.713-59.208 34.636-42.275 28.982-86.917 61.043-133.96 96.213-46.034 34.459-96.006 67.23-149.86 98.315-81.825 47.248-169.22 79.753-262.2 97.515-95.473 18.236-191.33 23.357-287.54 15.335-14.565-1.214-28.686-2.99-42.334-5.388-2.9659-0.52758-6.0007-0.53773-8.97-0.03-23.89 4.085-46.301 8.526-67.201 13.352-36.294 8.319-79.842 21.167-130.64 38.485-29.871 10.213-56.573 18.591-80.049 25.163-1.214 0.326-2.22-0.918-1.628-2.013 0.28146-0.54236 0.7-1.0016 1.214-1.332 37.035-22.943 75.638-44.376 115.75-64.359 1.155-0.562 1.095-1.036-0.119-1.362-11.93-3.227-22.203-3.967-30.817-2.25-43.873 8.763-87.065 23.742-127.03 45.501-31.588 17.2-60.629 35.288-87.125 54.294-7.697 5.506-9.769 3.878-6.187-4.885 1.599-3.908 4.825-9.266 9.71-16.045 32.89-45.708 81.352-81.263 133.37-102.31 1.154-0.444 1.154-0.918 0.029-1.362l-44.08-17.644c-1.6319-0.64839-3.4317-0.74186-5.122-0.266-18.502 5.299-36.294 11.664-53.346 19.094-70.013 30.462-131.62 101.16-161.67 168.89-13.825 31.114-20.19 62.731-14.032 96.657 0.177 0.918 1.302 1.214 1.924 0.503 39.64-46.36 88.279-73.566 148.46-89.937 64.685-17.585 135.08-22.203 203.65-22.055 127.59 0.296 259.78 12.286 384.94 43.073 35.939 8.852 71.553 20.516 107.97 31.144q50.934 14.875 106.04 19.983c34.844 3.227 69.628-1.895 104.35-15.335 27.828-10.746 54.797-29.279 81.973-43.074 2.368-1.214 2.25-2.072-0.355-2.605-21.522-4.47-41.742-9.444-60.659-14.98-1.9609-0.56832-4.0639-0.37805-5.891 0.533-7.371 3.612-15.305 6.039-23.861 7.312-30.403 4.5-63.708 3.967-94.111 2.813-34.874-1.332-70.102-5.24-104.92-8.763-0.918-0.089-1.362-0.562-1.391-1.48zm-1636.5-421.68c0.622-1.332 1.865-2.132 3.73-2.457 24.63-4.115 48.817-6.72 72.53-7.845 38.485-1.806 79.131-3.345 121.97-4.618 0.947-0.03 1.51-1.066 1.036-1.895l-14.565-24.423c-0.563-0.947-1.332-1.214-2.368-0.799-6.128 2.546-13.203 3.375-21.167 2.487-73.359-8.082-150.71-14.832-226.8-6.602-117.71 12.7-229.22 73.151-312.09 155.27-1.954 1.924-1.747 2.22 0.651 0.859 46.597-26.762 95.68-46.597 147.22-59.474 18.207-4.559 37.538-8.792 57.935-12.671 88.249-16.785 177.21-17.762 268.63-11.338 28.35 1.9743 56.691 4.0663 85.023 6.276 15.601 1.214 30.255 2.96 44.021 5.24 0.444 0.089 0.799-0.385 0.592-0.799l-5.595-12.049q-0.489-1.021-1.599-1.066c-12.73-0.592-23.476-7.786-35.88-10.332-12.078-2.487-23.506-4.292-34.311-5.417-46.419-4.825-95.71-7.016-147.84-6.602-1.302 0.029-1.687-0.564-1.124-1.748m3452.5-31.291c7.283 0.03 14.447 0.799 21.67 0.237 0.119 0 0.208-0.089 0.208-0.237 0.03-0.118-0.059-0.207-0.178-0.237-35.85-7.223-71.73-11.516-107.64-12.907-134.28-5.151-265.19 7.845-392.75 39.018-26.318 6.424-53.109 13.44-80.404 21.048-0.326 0.089-0.533 0.385-0.563 0.71l-1.421 27.473c-0.03 0.385 0.385 0.651 0.74 0.503 9.562-4.145 16.193-6.75 19.894-7.786 106.54-29.811 213.56-49.468 321-58.941q105.73-9.37 219.45-8.881m-232.15 158.06c-0.296 0.177-0.592 0.148-0.858-0.059-46.922-39.107-93.756-73.803-148.61-98.7-5.536-2.516-8.792-6.75-9.828-12.76-0.054508-0.33399-0.24389-0.63089-0.52376-0.82113-0.27987-0.19024-0.62563-0.25708-0.95624-0.18487-34.133 7.756-67.645 16.312-100.83 27.591-22.621 7.704-45.258 15.362-67.911 22.973-0.977 0.325-1.51 1.006-1.658 2.013l-7.105 48.166c-0.355 2.398 0.474 4.233 2.516 5.506 38.1 23.683 75.017 46.626 110.81 68.859 9.296 5.773 19.302 13.174 30.048 22.144 0.651 0.563 0.651 1.569-0.03 2.102l-0.799 0.651c-1.362 1.066-2.782 1.155-4.292 0.296-27.177-15.838-56.692-30.462-88.575-43.814-18.007-7.5285-36.576-13.636-55.537-18.266-0.38115-0.097534-0.78556-0.036002-1.1205 0.17048-0.33489 0.20648-0.5715 0.54018-0.65554 0.92452l-25.43 112.08c-0.237 1.007 0.533 1.954 1.569 1.983 13.115 0.148 27.502 2.398 43.222 6.69 47.988 13.056 92.512 34.726 133.57 64.951 1.036 0.77 2.516 0 2.487-1.273-0.296-15.572-1.273-37.686-9.207-51.511-6.483-11.279-9.74-23.209-1.717-34.577 7.371-10.45 17.289-14.358 29.782-11.723 11.693 2.457 21.522 12.73 31.646 19.42 52.814 34.814 114.15 44.524 174.52 22.351q11.767-4.308 22.647-11.368c3.345-2.161 4.529-5.181 3.552-9.029-8.852-34.429-34.548-59.741-47.248-91.861-9.207-23.298 18.917-34.933 35.554-35.791 21.019-1.036 34.34-2.013 39.936-2.901q121.9-19.05 215.81-107.91c6.188-5.891 11.842-12.049 16.934-18.532 0.829-1.066 0.296-2.664-1.036-2.99-40.765-10.213-82.743-16.46-125.94-18.709q-165.24-8.57-332.78 26.555c-2.339 0.503-2.398 1.214-0.207 2.161 7.875 3.405 15.601 7.549 23.209 12.374q64.255 40.987 115.99 100.18c0.77 0.858 0.651 1.599-0.326 2.22zm-444.65 325.97c-3.819-0.799-7.105-2.753-9.858-5.802-11.93-13.185-23.674-26.538-35.228-40.054-37.775-44.14-80.405-82.891-128.54-115.25-2.28-1.54-2.487-1.303-0.651 0.74q51.2 55.996 91.121 126.11c1.007 1.776 0.918 3.641-0.237 5.565-1.184 1.983-3.908 2.309-5.536 0.711-19.864-19.687-41.801-38.663-65.839-56.899-44.495-33.778-94.229-58.645-149.18-74.632-2.753-0.799-2.931-0.385-0.592 1.243 46.36 32.002 82.032 77.414 114.06 122.77 1.658 2.368 1.835 4.618 0.503 6.72-0.947 1.51-2.96 1.925-4.411 0.859-9.917-7.283-20.131-13.381-30.67-18.325-45.087-21.167-92.127-32.831-141.09-35.021-2.22-0.089-2.368 0.385-0.415 1.45 37.804 20.782 71.02 44.85 99.232 76.615 0.444 0.503 0.563 1.095 0.385 1.717-0.055797 0.26935-0.1897 0.51629-0.385 0.71-0.43086 0.46467-1.1383 0.54062-1.658 0.178-14.417-9.799-29.693-19.568-45.856-29.308-52.133-31.351-109.62-40.972-170.76-33.097-4.441 0.563-4.559 1.569-0.326 3.02 33.778 11.634 66.698 26.792 98.788 45.472 4.529 2.635 8.94 5.832 13.262 9.651 0.681 0.592 0.592 1.658-0.177 2.161-1.688 1.066-3.464 1.392-5.388 0.977-34.489-7.371-67.675-11.634-99.499-12.759-16.608-0.592-35.673 2.25-57.136 8.526-15.216 4.441-34.962 6.128-47.81 12.848-6.614 3.4647-13.139 7.0972-19.568 10.894-2.006 1.186-3.5821 2.98-4.5 5.122-43.133 102.07-119.22 194.94-217.59 249.09-65.099 35.791-133.81 60.747-206.16 74.868-0.30593 0.057596-0.53608 0.31186-0.563 0.622-2.161 16.104-5.713 30.255-10.687 42.452-11.99 29.338-26.762 56.307-44.376 80.967-0.385 0.562-0.415 1.273-0.03 1.835q8.126 12.212 15.453 25.755c4.944 9.118 12.552 15.838 20.516 22.203 1.332 1.066 1.006 3.168-0.592 3.76-0.93385 0.35935-1.9515 0.44164-2.931 0.237-20.634-4.174-38.485-12.286-53.494-24.305-1.45-1.155-2.812-1.095-4.085 0.237l-6.276 6.365c-1.273 1.303-1.184 2.487 0.296 3.583 22.588 16.43 49.261 29.634 80.049 39.669 25.726 8.378 52.458 11.93 80.197 10.687 1.569-0.059 2.487 1.687 1.569 2.96-0.918 1.213-2.072 2.161-3.405 2.782-40.409 18.947-91.032 21.582-134.64 15.157-26.673-3.937-50.652-13.736-71.878-29.396-1.095-0.799-2.546-0.829-3.641-0.089l-24.956 17.082c-1.125 0.77-0.918 2.457 0.326 2.96 24.956 9.947 51.185 19.479 78.628 28.627 34.193 11.397 68.208 17.615 102.01 18.651q109.46 3.33 211.37-33.749c46.478-16.904 90.736-43.399 130.11-73.092q66.298-50.001 120.52-104.98c57.372-58.172 114.36-116.58 177.54-171.88 117.29-102.67 254.98-185.68 412.09-205.6q1.776-0.222 0.977-1.865c-26.437-55.123-23.298-117.53-11.812-179.1 8.2185-44.065 16.666-88.086 25.341-132.06 7.46-37.834 11.545-76.881 12.226-117.17q0.577-34.459-6.572-64.211c-0.355-1.421-2.191-1.776-3.02-0.563-12.611 18.354-26.051 35.169-40.291 50.475-1.0408 1.0993-1.5113 2.62-1.273 4.115 6.187 41.12 7.874 85.022 1.717 126.11-4.44 29.574-8.2 58.912-10.243 88.96-0.207 3.079-1.806 4.559-4.855 4.411-1.066-0.059-1.835-0.563-2.28-1.51-2.546-5.27-3.316-10.746-6.72-15.779-14.506-21.433-35.554-38.396-57.432-53.583-1.598-1.095-1.954-0.799-1.036 0.888 3.049 5.802 7.075 11.042 10.125 16.845 17.14 32.475 28.982 65.069 35.465 97.722 9.5354 47.832 17.562 95.953 24.068 144.29 0.211 1.42-0.411 1.982-1.802 1.656m-1025.7-452.46c-0.491-0.48-1.646-0.095-2.615 0.863-0.955 0.967-1.34 2.121-0.854 2.618 0.491 0.48 1.646 0.095 2.615-0.863 0.955-0.967 1.34-2.121 0.854-2.618m-1203.6 671c4.322-28.656 8.674-57.432 13.055-86.355 8.585-56.662 22.262-113.18 41.061-169.54 23.565-70.753 55.626-133.25 104.38-186.15 1.806-1.954 1.539-2.25-0.74-0.918-57.106 33.393-96.568 80.996-118.36 142.78-7.7263 21.917-13.851 44.367-18.325 67.171-0.533 2.724-2.191 3.73-4.944 3.049-1.4676-0.39232-2.5826-1.5877-2.872-3.079-11.694-61.191-12.315-124.28 11.368-183.19 27.917-69.421 70.487-129.78 127.71-181.06 15.66-14.062 33.453-26.703 53.435-37.982 0.888-0.503 1.036-1.776 0.296-2.487l-20.959-20.279c-0.73028-0.71031-1.8638-0.7974-2.694-0.207-13.411 9.562-27.147 18.858-41.179 27.917-28.044 18.076-54.453 38.571-78.924 61.251-51.6 47.722-84.342 101.72-93.726 173.21-8.911 67.793-1.184 137.6 3.02 204.89 5.329 85.052-6.839 167.26-36.531 246.66-6.306 16.845-13.707 33.601-22.233 50.238-0.28263 0.55302-0.31835 1.1997-0.098341 1.7805 0.22001 0.58078 0.67524 1.0415 1.2533 1.2685 65.809 25.904 130.02 57.609 189.26 96.065 52.932 34.37 105.45 68.415 159.18 101.07 128.3 77.977 266.82 108.94 415.58 92.897 135.56-14.654 266.02-59.859 371.38-144.79 38.337-30.877 65.602-68.444 81.796-112.64 0.563-1.54-0.622-3.138-2.25-3.02l-38.959 2.812c-1.7936 0.11833-3.402 1.1461-4.263 2.724-4.352 7.904-9.355 15.157-15.009 21.788-33.985 40.084-73.832 71.849-119.57 95.295-11.161 5.714-21.907 8.526-32.268 8.437-6.602-0.03-7.016-1.658-1.244-4.825 6.839-3.759 13.914-9.147 21.167-16.164 31.765-30.64 60.037-66.046 84.786-106.22 0.355-0.533 0-1.273-0.651-1.302l-34.429-2.694c-1.45-0.118-2.812 0.592-3.582 1.806-13.588 21.226-32.861 37.804-57.846 49.676-1.066 0.503-2.339 0.03-2.783-1.066-0.562-1.391-0.562-2.813-0.03-4.263 6.809-18.502 16.341-35.021 28.568-49.557 0.326-0.385 0.089-0.977-0.415-1.066-123.6-18.739-232.24-68.74-325.94-150.06-1.4542-1.2492-3.2273-2.0692-5.121-2.368-80.7-12.315-165.31 6.72-238.82 41.327-1.332 0.622-2.694 0.622-4.085-0.03-1.036-0.503-1.214-1.214-0.503-2.132 1.984-2.546 3.76-4.263 5.388-5.181 40.824-23.032 82.536-42.126 125.08-57.313q8.614-3.064-0.533-2.931c-86.947 1.332-173.3 20.604-257.32 49.35-2.457 0.829-4.885 1.066-7.312 0.681-2.043-0.296-3.02-2.694-1.747-4.322 4.381-5.655 9.858-10.421 16.401-14.299 85.319-50.356 188.04-72.382 288.08-78.51 2.28-0.148 2.635-1.036 1.125-2.723l-13.233-14.832c-1.569-1.717-3.789-2.694-6.128-2.635-33.008 0.947-56.336 2.28-69.984 3.967-139.61 17.318-280.62 77.829-376.83 183.46-2.516 2.753-5.506 4.056-8.97 3.849-0.622-0.03-1.006-0.74-0.681-1.273 10.006-17.081 19.923-34.044 31.351-50.06 8.8328-12.437 17.158-25.226 24.956-38.337 3.641-6.187 8.289-11.842 13.884-16.933q28.375-25.8 57.195-46.804c4.796-3.493 4.411-4.233-1.184-2.22-59.119 21.285-110.45 55.981-153.97 104.06-10.036 11.101-19.716 21.789-29.012 32.061-3.02 3.345-6.602 5.862-10.776 7.49-1.066 0.415-1.51 0.059-1.303-1.036q11.679-66.476 50.623-123.8c6.424-9.414 12.937-19.953 19.568-31.617 1.095-1.954 0.592-3.286-1.539-3.967-1.391-0.444-2.872-0.119-4.411 1.006-9.621 6.927-19.213 15.098-26.318 25.045-15.147 21.224-28.27 43.822-39.196 67.497-1.216 2.606-1.601 2.487-1.157-0.325m-793.62-120.13c-2.694 1.569-3.256 1.007-1.747-1.717 23.476-42.274 52.31-83.572 86.473-123.86 4.322-5.122 16.401-6.335 22.795-7.135 18.621-2.309 35.939-4.559 51.955-6.779 8.171-1.155 8.141-1.954-0.118-2.398-38.041-2.102-77-3.997-116.94-5.743-1.421-0.059-2.072-1.776-1.066-2.783q32.017-32.106 75.046-46.36c21.907-7.283 43.843-13.559 65.81-19.746 1.332-0.385 2.516-1.302 3.493-2.753 0.592-0.859-0.089-2.043-1.125-1.983-41.061 1.658-81.233 10.776-119.36 26.318-1.628 0.651-1.924 0.296-0.829-1.095 28.272-36.679 65.01-69.984 106.78-88.545 27.887-12.375 58.32-22.617 91.328-30.699 6.661-1.628 11.871-6.631 18.858-6.335 3.049 0.119 6.039 0.622 9.029 1.54 43.083 13.142 86.369 25.607 129.84 37.39 3.286 0.888 3.493 0.414 0.651-1.451q-68.163-44.628-129.58-93.608c-0.75137-0.5945-1.3927-1.3161-1.895-2.132-0.474-0.77 0.03-1.776 0.918-1.865 40.172-4.174 78.48 1.747 118.42 7.016 1.628 0.207 3.197 0.089 4.707-0.385 1.155-0.355 1.303-1.954 0.237-2.546-3.76-2.073-7.608-3.73-11.605-4.944-12.17-3.7662-24.357-7.4766-36.561-11.131-20.427-6.128-41.505-9.029-62.287-9.473-0.33547-0.0054789-0.62577-0.23482-0.70874-0.55992-0.082969-0.3251 0.061923-0.66551 0.35374-0.83108 26.259-14.536 53.968-24.571 83.128-30.048 40.202-7.549 79.013-9.503 116.43-5.802 1.332 0.118 1.747-0.444 1.243-1.658l-12.404-30.847c-0.266-0.651-0.918-1.036-1.599-0.917-14.506 2.161-28.893 3.7-43.162 4.559-57.905 3.493-112.11 20.812-162.58 51.985q-12.3 7.593-24.334 14.565c-1.036 0.622-1.48 1.895-1.007 3.02 6.602 15.335 14.269 29.13 22.973 41.357 11.368 15.986 0.858 31.232-17.91 29.752-23.387-1.835-47.337-0.444-69.303 4.826-47.13 11.338-87.983 40.794-120.37 77.799-26.081 29.782-49.083 62.523-69.007 98.196-1.362 2.427-0.711 4.056 1.954 4.914 9.236 2.931 18.295 6.128 27.176 9.651 12.789 5.062 14.151 20.279 3.138 28.39-41.86 30.906-70.753 79.664-91.328 127.44-28.568 66.283-46.922 133.63-55.093 202.05-0.326 2.931 0.326 3.197 2.013 0.77 6.1571-8.804 12.414-17.538 18.769-26.2 3.908-5.299 7.371-12.375 10.361-21.167 14.18-41.742 29.722-81.825 46.685-120.25 1.303-2.96 2.516-5.299 4.885-7.608 7.371-7.194 14.476-14.328 21.256-21.404 12.404-12.878 29.249-27.562 50.534-44.11 3.697-2.8522 7.0633-6.1092 10.036-9.71 0.43755-0.54852 0.50749-1.3045 0.178-1.924-0.17776-0.32179-0.41936-0.60388-0.71-0.829-0.829-0.622-1.717-0.77-2.694-0.414-4.0184 1.5222-7.9259 3.3226-11.694 5.388-13.594 7.4008-27.075 15.009-40.437 22.821m-73.595 214.69c-2.0361 2.8218-3.9713 5.7149-5.802 8.674-3.138 5.062-2.664 5.418 1.391 1.036 29.634-32.091 61.547-63.826 95.68-95.206 93.637-86 206.07-155.6 321.94-214.04 94.17-47.514 192.34-80.641 294.56-99.38 0.50646-0.08773 0.92758-0.43911 1.1046-0.92167 0.17701-0.48256 0.083-1.0229-0.2466-1.4173-14.417-17.318-27.769-36.531-40.025-57.609-0.74-1.302-2.309-1.954-3.789-1.599-18.032 4.638-36.121 9.0493-54.264 13.233-98.285 22.765-183.54 63.293-270.19 122q-152 103.02-273.36 240.5c-20.989 23.771-43.34 52.014-66.993 84.726m3252.7-363c-14.151-0.326-29.012 0.266-44.554 1.835-10.421 1.036-19.568 3.7-27.413 7.993q-1.243 0.71-1.243 2.131c0.03 1.095 0.859 1.983 1.954 2.043 23.476 1.45 47.574 4.322 72.263 8.585 19.213 3.315 36.679 9.947 55.211 13.795 1.155 0.267 1.865 0.977 2.102 2.131 0.918 4.559-0.622 8.289-4.677 11.19-24.216 17.318-47.899 38.248-71.079 62.731-20.545 21.7-42.748 41.949-64.211 62.938q-1.465 1.42 0.533 1.155c44.436-5.536 90.41-10.51 137.95-14.92 7.638-0.711 23.091-2.516 29.663 1.599q2.62 1.688-0.444 2.309c-12.582 2.5435-25.047 5.6351-37.36 9.266-5.625 1.658-10.865 3.79-15.69 6.424-2.042 1.125-1.983 4.085 0.118 5.122 2.339 1.155 5.003 1.658 7.993 1.451q33.705-2.176 63.678 0.089c1.983 0.148 3.7 0.8 5.122 1.924 15.364 12.197 32.89 25.134 44.731 41.149 12.967 17.488 25.963 34.954 38.988 52.399 1.184 1.569 0.859 2.013-1.006 1.332-28.834-10.539-62.968-19.539-102.4-26.969-1.095-0.207-1.835 0.237-2.28 1.273-0.41793 1.0872 0.090038 2.3112 1.155 2.783 25.001 10.832 49.553 22.674 73.595 35.495 2.5393 1.3731 5.0186 2.8545 7.431 4.44 1.45 0.977 1.302 1.48-0.444 1.54-24.038 0.799-45.353 3.404-63.944 7.875-33.127 7.934-65.484 18.739-97.072 32.446-1.717 0.74-1.628 1.125 0.237 1.155l64.714 0.888c5.2334 0.054547 9.9186 3.2562 11.871 8.112l24.897 61.398c0.71 1.747 0.267 2.102-1.302 1.095-17.644-11.279-36.798-22.44-56.573-27.324-1.155-0.296-2.309 0.385-2.635 1.539-0.385 1.421-0.089 2.576 0.888 3.434 18.858 16.578 36.472 32.387 52.844 47.455 6.838 6.306 15.364 13.055 25.577 20.279 0.918 0.622 1.569 1.45 2.013 2.457 19.391 45.146 34.429 81.381 45.087 108.65 14.269 36.501 25.074 75.342 32.387 116.52 1.51 8.319 3.7 14.95 6.602 19.834 5.2432 8.8615 10.552 17.684 15.927 26.466 0.977 1.569 1.51 1.451 1.628-0.414 4.619-75.638-4.411-148.46-27.058-218.48-17.792-54.975-42.156-99.617-73.122-133.93-8.2-9.089-14.299-19.864-9.917-32.298 4.885-13.944 17.881-18.828 31.794-17.733q37.7 2.975 80.197-9.68c1.027-0.28172 1.6349-1.3386 1.362-2.368-11.072-45.442-31.38-85.407-60.896-119.95-29.456-34.459-65.425-65.928-114.06-63.352-36.502 1.924-47.485-43.104-13.677-58.586 26.969-12.345 48.077-30.759 63.352-55.241 1.925-3.108 1.776-6.128-0.503-9.059-14.151-18.266-31.824-33.364-52.991-45.294-37.301-21.019-83.365-36.679-125.4-31.736-8.6142 1.0262-17.265 1.7174-25.933 2.072-1.095 0.059-1.688 0.651-1.747 1.747l-1.657 33.512c-0.089 1.332 0.562 2.043 1.895 2.073 33.985 0.799 66.016 7.638 96.124 20.545 4.351 1.864 4.173 2.752-0.593 2.663m-2883.5 215.16c-0.31194-0.026796-0.59555-0.19165-0.77322-0.44944-0.17767-0.25779-0.23077-0.58151-0.14478-0.88256 13.233-46.36 37.627-90.292 65.839-131.32 0.207-0.296-0.03-0.681-0.385-0.651-0.99888 0.11642-1.9759 0.37573-2.901 0.77-65.366 28.183-130.94 60.925-191.51 99.262-102.31 64.803-192.19 144.82-269.6 240.06q-1.554 1.91 0.888 1.599c74.365-9.414 141.68-30.906 213.03-62.139 38.456-16.844 77.296-39.699 116.46-68.563 22.558-16.608 38.515-30.462 47.84-41.505 8.407-9.947 20.397-16.134 32.268-8.2 11.013 7.342 11.161 19.568 6.572 30.966-9.4838 23.612-17.309 47.857-23.417 72.559-0.18362 0.74296-0.0075645 1.529 0.47542 2.1227s1.2168 0.92595 1.9816 0.89731c75.697-1.954 146.51-19.213 212.41-51.807 24.838-12.286 47.337-26.821 67.556-43.666 6.839-5.713 13.411-12.404 19.687-20.101 8.615-10.539 20.782-15.098 32.328-5.417 7.105 5.98 8.23 15.572 8.052 24.453-0.23272 11.581-0.95369 23.146-2.161 34.666-0.057651 0.57145 0.17835 1.1332 0.62684 1.4919 0.44849 0.35879 1.0483 0.46574 1.5932 0.28405 16.618-5.5463 32.765-12.417 48.284-20.545 5.299-2.783 9.503-4.411 11.19-11.013 14.299-55.33 17.111-112.35 11.25-169.13-2.161-20.959-4.5-42.807-6.957-65.573-0.039812-0.33946-0.27534-0.62385-0.60143-0.72621-0.32609-0.10236-0.6819-0.0035951-0.90857 0.25221-15.897 18.147-32.89 34.814-48.136 53.939-23.831 29.898-45.98 61.099-66.342 93.459-0.326 0.533-0.799 0.651-1.362 0.355l-0.681-0.355q-0.178-0.089-0.089-0.266c13.766-32.653 24.453-56.573 32.002-71.76 10.332-20.752 22.647-42.748 37.005-65.987 4.8811-7.908 10.157-15.565 15.808-22.943 0.355-0.444 0.03-1.095-0.563-1.095-22.884 0.622-45.649 2.694-68.296 6.158-63.796 9.799-127.06 26.525-189.82 50.179-1.2242 0.45227-2.321 1.1936-3.197 2.161-27.354 30.137-50.149 61.043-71.73 97.93-9.828 16.845-20.634 33.482-32.416 49.972-0.294 0.382-0.679 0.59-1.153 0.56m1473.4-1.036c6.306 3.76 5.862 5.062-1.391 3.878-62.642-10.332-123.18-28.302-185.79-49.143-19.154-6.365-37.331-13.203-54.59-20.486-4.5-1.924-4.737-1.48-0.711 1.302 38.194 26.342 78.712 49.143 121.05 68.119 31.499 14.121 65.04 24.216 98.67 33.63 4.322 1.214 8.407 2.872 12.227 4.973 4.144 2.28 3.878 3.641-0.829 4.085q-6.173 0.622-12.789 0c-91.298-8.704-176.85-43.015-255.16-88.486-25.756-14.95-50.504-32.475-74.217-52.547-23.651-20.017-47.939-39.27-72.826-57.728-2.3151-1.7116-5.1465-2.5787-8.023-2.457l-37.686 1.688c-3.02 0.148-3.375 1.184-1.036 3.108 34.307 28.421 68.392 57.108 102.25 86.059 50.475 43.163 102.1 80.582 154.86 112.29 40.173 24.127 83.039 42.511 128.63 55.152 171.29 47.514 358.86 21.7 509.25-72.915 24.69-15.512 44.821-29.574 60.392-42.156q71.405-57.684 113.77-136.42c1.0409-1.9161 1.4159-4.1237 1.066-6.276-1.983-12.019 3.464-26.762 9.148-36.798 0.977-1.806 0.503-2.398-1.451-1.835l-6.424 1.806c-2.191 0.622-3.878 2.398-4.322 4.648-2.073 10.273-5.98 19.509-11.694 27.65-11.25 16.045-24.453 31.351-39.018 45.62-60.037 58.823-132.18 98.907-212.68 128.6-75.283 27.769-153.02 45.708-233.25 53.791q-1.376 0.133-1.599-1.243l-0.148-0.947c-0.178-1.155 0.296-1.865 1.451-2.102q51.067-11.102 110.84-31.262c47.929-16.194 95.147-37.923 141.66-65.247 32.949-19.331 63.885-42.097 92.808-68.267 4.677-4.233 4.322-4.707-1.095-1.451-13.855 8.319-28.568 16.519-44.11 24.631-77.177 40.232-160.42 60.451-245.98 69.628-15.897 1.717-31.913 2.043-48.077 0.977-1.895-0.118-2.813-2.398-1.51-3.819 0.977-1.095 2.191-1.746 3.612-2.013 42.748-8.112 87.627-19.983 134.61-35.643 2.0687-0.69729 4.0784-1.5587 6.01-2.576 0.118-0.059 0.207-0.059 0.296 0.03 0.208-0.03 0.208-0.03-0.03 0-13.44 0.829-27.591 0.533-42.422-0.918-40.972-3.967-80.967-12.226-119.95-24.778-24.69-7.934-49.379-17.23-73.595-24.749-53.169-16.46-106.75-28.686-160.75-36.65-1.687-0.266-1.746 0-0.207 0.74 52.635 25.282 96.746 57.639 148.91 77.059 16.282 6.069 35.673 12.315 58.201 18.739 4.3236 1.2224 8.4949 2.9306 12.434 5.092 6.187 3.404 5.743 5.299-1.303 5.684q-14.298 0.8-32.327-1.51c-36.235-4.589-71.938-12.463-107.08-23.624-49.794-15.779-92.512-29.071-128.16-39.906-3.938-1.184-4.145-0.681-0.681 1.51 28.331 17.822 57.994 34.429 89.019 49.794 32.476 16.104 65.662 28.124 100.71 39.284 5.298 1.689 8.969 3.139 11.042 4.383m451.78-167.59c1.5674-1.2592 2.9261-2.758 4.026-4.441 0.799-1.273 0.503-1.658-0.918-1.184-1.806 0.562-3.227 2.161-4.263 4.766-0.71 1.747-0.325 2.043 1.155 0.859m881.7 341.9c86.68 85.615 168.42 174.72 245.59 269.4 2.96 3.612 3.404 3.345 1.303-0.829-47.84-95.976-110.19-186.98-185.71-262.65-57.135-57.224-114.39-106.48-175.43-157.94-24.956-21.048-47.988-38.189-77.089-47.485-1.8282-0.59316-3.8163-0.44448-5.536 0.414l-31.38 15.69c-0.55144 0.28379-0.95096 0.79481-1.0933 1.3984-0.14235 0.60362-0.01324 1.2393 0.3533 1.7396 3.671 5.003 6.898 8.2 12.552 11.427 80.168 45.857 149.83 103.05 216.44 168.83m-251.01 140.5c-1.421 2.457-3.049 3.375-4.855 2.694-0.42188-0.15688-0.70395-0.55694-0.71-1.007 0.089-9.799 0.681-19.124 1.747-27.976 7.313-60.747 14.92-120.96 15.542-183.48 0.208-21.226-0.829-39.788-3.138-55.626-1.54-10.48-2.665-20.693-3.345-30.61-0.089-1.421-0.681-2.635-1.717-3.612q-4.308-3.953-10.036-6.039c-1.2803-0.44591-2.6932-0.29357-3.849 0.415-74.513 45.471-141.06 101.6-202.82 162.76-1.5326 1.5272-2.247 3.6926-1.924 5.832 10.509 69.984 33.482 137.48 73.714 196.04q30.197 43.917 68.829 82.062c0.651 0.651 1.717 0.562 2.28-0.148 18.029-23.772 31.41-49.231 40.202-76.378 3.464-10.687 16.963-9.325 20.16 0.533 21.789 66.845 59.8 124.16 114.33 166.97 25.015 19.657 52.843 36.857 83.424 51.6 0.829 0.385 1.835 0 2.161-0.858 14.328-37.686 20.219-75.579 17.703-113.74-1.125-17.082 13.558-18.769 24.63-10.391 11.161 8.496 22.736 17.022 34.637 24.216 45.264 27.295 93.696 44.169 145.24 50.593 41.238 5.122 82.299 5.536 122.65-3.049 1.658-0.325 2.516-2.19 1.717-3.671-19.154-35.702-42.126-70.013-68.918-102.96-66.905-82.299-138.34-156.78-211.79-227.98-1.095-1.066-1.747-0.829-1.924 0.681-7.401 63.53-13.736 124.72-26.88 188.25-0.119 0.592-0.77 0.947-1.333 0.74l-0.77-0.296c-1.006-0.414-1.628-1.45-1.48-2.516 6.01-48.965 8.733-97.486 8.171-145.59-0.148-12.582-0.385-26.052-3.197-38.426-2.043-9.088-2.161-17.851-0.355-26.318 0.296-1.362-0.059-2.516-1.066-3.493-58.083-55.774-121.73-105.45-190.92-149-0.622-0.385-0.977-0.207-1.007 0.533-3.345 93.548-16.252 186.24-34.607 277.86-0.09 0.504-0.267 0.948-0.504 1.392m-187.6 206.64c-1.569-0.444-2.516-1.48-2.842-3.079-4.085-20.16-7.342-38.663-9.799-55.448-4.441-30.669-12.256-62.672-21.818-89.463-16.354-45.872-33.368-91.506-51.037-136.89-0.414-1.007-1.717-1.273-2.457-0.503l-36.798 37.774c-0.59103 0.6256-0.65319 1.5832-0.148 2.28 18.858 25.045 34.903 52.488 48.166 82.329 30.522 68.711 51.274 141.42 62.287 218.09 11.664 81.174 16.194 159.51 13.588 235.03-0.03 0.207 0.089 0.355 0.325 0.385h0.03c0.207 0.029 0.325-0.089 0.385-0.296 16.874-80.819 25.311-163.92 25.311-249.26 0.03-44.88-7.43-86.532-14.832-129.75-0.39033-2.2546-1.1826-4.4206-2.339-6.395l-13.588-23.358c-1.539-2.635-2.072-2.457-1.628 0.562 4.885 33.956 8.082 72.974 9.562 117.11 0.03 0.799-0.74 1.391-1.48 1.155zm-845.67 162.2c-0.385 0.385-0.77 0.355-1.095-0.059-31.588-37.597-65.573-80.967-102.01-130.14-15.512-20.93-28.213-39.521-38.071-55.833-2.664-4.411-5.062-9.355-7.164-14.891-0.71-1.865-1.48-1.865-2.279-0.059-1.835 4.145-3.345 8.763-5.625 12.641-10.48 17.555-17.377 29.574-20.693 35.999-37.005 71.523-57.728 149.91-69.658 229.34-0.148 0.948 0.029 1.835 0.503 2.694 5.24 9.355 10.272 19.716 15.127 31.054 7.105 16.608 16.845 33.867 29.249 51.777 24.186 34.962 52.517 71.345 85.052 109.18 0.533 0.592 0.355 1.54-0.355 1.924l-0.858 0.474c-1.45 0.77-2.753 0.592-3.937-0.503-51.067-47.899-94.2-99.972-129.34-156.25-0.977-1.54-1.569-1.421-1.806 0.385-15.217 114-14.832 228.22 5.506 341.04 13.056 72.381 32.742 143.02 59.06 211.96 8.2982 21.623 16.855 43.147 25.667 64.566 0.296 0.651 0.948 1.095 1.658 1.066 0.622-0.03 1.066-0.296 1.391-0.799 17.082-26.466 32.683-54.027 46.863-82.654 36.294-73.418 53.05-154.71 49.646-236.3-1.095-26.377-5.566-55.359-13.41-86.917-2.191-8.792-1.303-17.615 2.694-26.466 2.694-6.04 10.421-12.493 16.785-12.641q34.948-0.8 74.602 2.309c17.229 1.362 34.104 1.155 50.475 1.155 1.954 0 3.612-1.48 3.849-3.434q8.392-69.407 1.599-140.14c-2.043-21.345-7.312-43.518-15.809-66.461-5.151-13.914-18.354-22.499-24.068-36.768-4.766-11.96-0.414-27.206 11.605-32.179 10.243-4.234 20.338-2.96 30.285 3.789 22.473 15.244 45.011 30.392 67.615 45.442 1.687 1.125 3.967 0.444 4.766-1.391 27.739-63.323 25.104-139.05 1.776-201.81-2.605-6.987-4.115-14.595-5.684-21.996q-0.4-1.776-2.22-2.042c-28.509-4.174-57.165-11.398-86-21.641-34.192-12.167-69.895-34.104-91.802-63.826-0.99396-1.3602-2.8396-1.7774-4.322-0.977-23.647 12.705-48.046 23.956-73.063 33.689-0.651 0.237-0.977 0.977-0.71 1.658 6.0233 14.67 12.132 29.304 18.325 43.903 8.2 19.331 19.42 40.646 33.63 63.885 20.983 34.339 42.061 68.621 63.234 102.84 0.622 1.007 0.533 1.925-0.326 2.753zm-805.38 12.078c-1.924-0.296-2.339-1.244-1.303-2.872 9.089-14.062 19.391-27.768 30.907-41.149 49.527-57.521 102.49-107.28 158.82-149.35 1.451-1.095 1.303-1.895-0.385-2.457l-39.61-12.7c-1.362-0.444-2.576-0.177-3.641 0.74-62.938 53.909-125.14 111.87-174.34 177.36-86.088 114.6-127 255.9-108.97 397.52 0.385 3.049 0.829 3.079 1.303 0.03 8.111-52.606 23.831-103.17 47.189-151.69 62.553-129.93 157.64-241.69 263.86-342.99 11.398-10.865 21.907-20.279 31.528-28.212 7.135-5.891 6.602-6.661-1.569-2.368-26.614 13.943-52.221 30.374-76.881 49.291-35.761 27.443-77.029 63.382-123.83 107.79-0.919 0.857-1.955 1.212-3.08 1.064m507.86 289.59c9.799 59.622 22.055 117.35 36.738 173.21 0.119 0.415 0.385 0.563 0.829 0.474h0.03q0.666-0.133 0.533-0.799c-11.546-58.853-18.029-117.02-19.479-174.54-1.628-64.122 2.339-133.84 11.842-209.15 5.477-43.548 11.161-81.263 17.052-113.12 10.034-54.324 23.753-107.9 41.061-160.36 0.474-1.451-0.03-1.984-1.48-1.658l-44.11 10.036c-1.688 0.355-3.079 1.569-3.7 3.168-33.482 85.496-55.863 173.57-57.964 264.51-0.444 18.443 0 38.337 1.302 59.681 2.78 45.797 8.553 95.294 17.346 148.55m-221.67-373.36c16.105-32.239 37.508-60.807 64.211-85.763 0.059-0.059 0.03-0.178-0.059-0.178-11.274-0.74513-22.553-1.4061-33.837-1.983-0.46648-0.027155-0.91778 0.17061-1.214 0.532-44.495 50.83-77.119 104.35-96.213 167.26-0.086351 0.29291-0.026161 0.60948 0.16166 0.85025 0.18782 0.24078 0.48022 0.37621 0.78534 0.36375 20.338-0.977 39.373-3.789 57.136-8.378 12.907-3.345 25.578-3.168 28.479 12.344 0.74 3.908 0.118 7.845-1.332 11.516-3.812 9.5346-7.7497 19.018-11.812 28.449-34.903 80.908-41.268 164.18-19.124 249.8 8.467 32.742 19.035 64.063 31.735 93.993 0.44055 1.0212 1.5561 1.5728 2.635 1.303 1.0707-0.28232 2.0899-0.73221 3.02-1.333 7.961-5.0943 15.603-10.67 22.884-16.697 11.279-9.325 26.259-13.233 33.156 3.345 0.948 2.28 1.48 4.589 1.599 6.869 7.608 140.94 115.07 243.58 222.71 320.34 1.806 1.273 2.368 0.858 1.658-1.244-3.3895-9.9127-6.8236-19.81-10.302-29.692-1.688-4.796-5.033-9.888-10.006-15.306-18.266-19.746-36.384-40.469-54.412-62.139q-53.686-64.522-89.7-137.75c-0.68823-1.4091-1.0333-2.961-1.007-4.529 0.415-33.749 0.948-64.744 7.667-99.025 0.474-2.398 0.622-4.914 0.415-7.608-0.326-4.529-1.806-4.944-4.441-1.273-2.1542 2.9823-4.0177 6.1642-5.565 9.502q-12.078 26.155-18.562 49.735c-0.503 1.835-1.155 1.895-1.954 0.148-6.069-13.47-11.427-26.762-16.104-39.906-1.214-3.463-0.858-6.453 1.125-8.999 22.469-29.042 41.031-62.109 55.715-99.144 0.651-1.658 0.267-1.954-1.125-0.859-34.222 26.703-67.379 58.704-98.64 88.96-2.4064 2.3432-5.1754 4.2825-8.2 5.743-0.829 0.385-1.687 0.562-2.605 0.474-4.322-0.355-7.105-2.872-8.319-7.52-15.749-60.599-22.854-122.86-21.344-186.77 0.148-7.075 1.451-14.062 3.878-20.96 7.964-22.558 15.128-39.906 21.433-52.043 11.782-22.677 29.219-47.277 52.281-73.832 0.59408-0.69251 0.61874-1.7075 0.059-2.428-0.888-1.155-1.835-1.391-2.872-0.77-24.512 15.039-46.33 31.795-65.425 50.268-1.125 1.066-1.599 0.829-1.421-0.681 0.799-7.371 1.865-27.531 7.371-32.564 14.654-13.411 29.249-28.124 43.784-44.198 16.756-18.502 34.222-37.153 52.369-56.011 1.332-1.362 1.066-1.776-0.77-1.214-40.587 12.315-79.102 26.081-118.71 41.771-6.513 2.605-20.042 6.868-26.199 2.161-2.516-1.954-2.635-4.056-0.355-6.276q39.388-38.367 84.46-83.75c2.872-2.901 5.329-6.276 7.372-10.095 0.799-1.51 0.385-2.102-1.303-1.717-4.263 0.977-8.348 2.753-12.226 5.299-22.884 14.98-42.571 33.127-61.961 52.281-1.748 1.72-2.074 1.483-0.979-0.678" fill="#1b1c1e" stroke-linecap="round"/>
</g>
<g transform="matrix(.12 0 0 .12 570.15 353.88)">
<path transform="translate(-2969.7 -1072.1)" d="m2018.1 786.85c-19.035-7.519-34.37-19.864-46.064-37.005-3.049-4.441-2.072-5.625 2.901-3.552 21.404 8.911 40.113 18.147 54.531 36.383 1.865 2.339 0.207 5.773-2.783 5.802-2.961 0.029-5.832-0.533-8.585-1.628m22.945-20.296c4.831 7.526 7.064 14.708 4.987 16.042-2.077 1.334-7.678-3.686-12.51-11.212-4.832-7.526-7.064-14.708-4.987-16.042 2.077-1.334 7.678 3.686 12.51 11.212m-26.261 265.74c-11.753-5.27-21.966-11.013-30.64-17.2-2.812-2.043-5.27-4.737-7.342-8.082-0.51491-0.80991-0.74407-1.7688-0.651-2.724 0.326-3.02 1.865-3.908 4.677-2.694 14.595 6.424 27.236 15.956 37.952 28.568 0.77 0.888 0.266 2.25-0.888 2.487-1.0476 0.21016-2.1348 0.085984-3.108-0.355m34.015-4.796c2.387 0 4.322 1.935 4.322 4.322 0 2.387-1.935 4.322-4.322 4.322-2.387 0-4.322-1.935-4.322-4.322 0-2.387 1.935-4.322 4.322-4.322m1919.2 127.76c-1.678 2.555-4.745 3.506-6.85 2.124-2.105-1.382-2.45-4.575-0.771-7.13 1.678-2.555 4.745-3.506 6.85-2.124 2.105 1.383 2.45 4.575 0.771 7.13m-58.696 36.723c-15.128-7.608-32.179-16.756-51.156-27.472-2.487-1.391-4.263-3.345-5.358-5.802-0.74-1.717 0.71-3.552 2.546-3.227 17.229 3.138 86.858 19.331 87.361 41.15 0.032108 1.2498-0.49028 2.4498-1.4269 3.2778-0.93666 0.82804-2.1916 1.1993-3.4281 1.0142-10.154-1.511-19.686-4.471-28.538-8.941m34.015-23.358c-2.042-1.273-3.108-3.701-2.694-6.098 0.088-0.474 0.325-0.859 0.74-1.155 1.569-1.214 3.286-1.421 5.121-0.681 7.845 3.197 14.299 7.579 19.302 13.115 1.125 1.243 0.059 3.227-1.599 2.931-7.075-1.214-14.031-3.908-20.87-8.112m-662.89 127.05c5.158-2.836 10.252-3.473 11.379-1.425s-2.142 6.008-7.3 8.844c-5.158 2.836-10.252 3.473-11.378 1.425-1.127-2.049 2.142-6.008 7.299-8.844m-336.13 61.551c-5.403 6.394-11.929 9.763-14.577 7.526-2.648-2.237-0.414-9.234 4.99-15.628 5.403-6.394 11.93-9.763 14.577-7.526 2.647 2.237 0.413 9.234-4.99 15.628m812.63-0.528q40.099 11.812 70.517 31.795c3.405 2.22 6.483 4.707 9.177 7.401 1.095 1.066 0.355 2.901-1.155 2.96q-7.638 0.222-15.365-1.865c-24.423-6.631-46.419-19.035-65.928-37.242-0.947-0.888-0.681-2.457 0.533-2.931 0.70582-0.28876 1.4886-0.33035 2.221-0.118m-454.33 1.954c7.667-0.918 26.525 0.977 30.936 9.799 1.599 3.197-0.444 7.016-3.997 7.46-12.108 1.421-24.66 2.546-37.597 3.404-20.575 1.332-40.025 4.974-58.379 10.924-0.977 0.326-1.687 0.029-2.191-0.859-0.444-0.799-0.266-1.48 0.474-2.013 22.44-16.222 46.034-25.784 70.754-28.715" fill="#1b1c1e" stroke-linecap="round"/>
</g>
<g transform="matrix(.12 0 0 .12 683.39 391.71)">
<circle r="5.862" fill="#1b1c1e"/>
</g>
<g transform="matrix(.12 0 0 .12 528.19 546.76)">
<path transform="translate(-2637.6 -2712.9)" d="m3311.2 1396.5c11.887-0.602 21.631 1.014 21.762 3.611 0.132 2.596-9.398 5.189-21.286 5.791-11.888 0.602-21.631-1.014-21.762-3.611s9.398-5.188 21.286-5.791m-1718.7 236.38c-26.052-19.568-49.35-41.505-68.859-67.704-5.536-7.431-10.095-15.601-13.736-24.512-0.25924-0.64868-0.0081836-1.3896 0.592-1.747 0.859-0.503 1.658-0.474 2.398 0.118q33.882 26.776 65.099 48.846c19.45 13.707 36.294 29.663 52.873 46.656 2.575 2.635 4.263 5.714 5.033 9.207 0.296 1.214-0.237 2.487-1.273 3.168-9.77 6.424-34.726-8.467-42.127-14.032m-44.552 9.144c15.661 10.016 26.686 20.748 24.624 23.971-2.061 3.223-16.428-2.283-32.089-12.299-15.661-10.016-26.686-20.748-24.624-23.971 2.061-3.223 16.428 2.283 32.089 12.299m-31.412 32.272c8.023-0.296 19.479 6.75 26.703 10.45 3.404 1.747 3.197 2.575-0.622 2.546-7.608-0.089-23.121-1.214-28.39-7.993-1.539-1.984-0.207-4.914 2.309-5.003m1664.2 29.811c8.674-2.22 18.147-2.605 28.479-1.125 0.977 0.148 1.717 0.651 2.191 1.51 0.592 1.007 0.059 2.28-1.066 2.605-6.572 1.865-23.328 5.447-30.167 1.747-2.072-1.096-1.687-4.145 0.563-4.737m506.64 200.66c-13.172-4.9683-26.376-9.8531-39.61-14.654-5.655-2.042-5.536-3.641 0.385-4.796 28.39-5.447 70.576-3.76 92.009 19.065 2.635 2.812 2.073 7.312-1.155 9.384-8.022 5.211-42.215-5.417-51.629-8.999m-6.365 31.469-9.385-6.128c-2.723-1.776-1.687-5.98 1.539-6.306l11.575-1.095c0.62039-0.056376 1.2445 0.056276 1.806 0.326l20.457 9.828c1.51 0.71 2.28 2.428 1.806 4.056-0.444 1.599-2.013 2.635-3.671 2.457l-22.647-2.605c-0.52909-0.055769-1.0368-0.23863-1.48-0.533m-852.36 8.97c-28.509 15.957-58.32 29.604-84.046 50.386-0.918 0.74-2.25 0.622-3.049-0.237-0.888-1.006-0.71-2.487 0.563-4.47 13.795-21.522 64.004-66.816 91.535-54.856 1.717 0.74 2.22 2.96 0.977 4.352-1.716 1.923-3.7 3.552-5.98 4.825m-877.02 7.697c-13.263 12.611-30.788 22.617-48.965 25.222q-2.043 0.267-2.931-1.599c-1.48-3.108-1.421-6.246 0.178-9.355 8.763-17.17 23.002-25.252 42.689-24.245 3.286 0.177 6.631-0.267 9.177 2.309 2.101 2.161 2.013 5.595-0.148 7.668m-1.761 36.609c-5.445 7.279-11.59 11.886-13.724 10.289-2.134-1.597 0.551-8.791 5.996-16.07 5.445-7.279 11.59-11.886 13.724-10.289 2.133 1.596-0.551 8.791-5.996 16.07m801.75 19.313c7.105-13.914 20.457-22.617 36.058-23.506 3.878-0.207 4.618 1.214 2.191 4.263-12.227 15.364-24.601 28.39-37.153 39.107-2.694 2.28-6.839 0.503-7.016-3.02-0.326-5.862 3.315-11.812 5.92-16.844m-370.55 49.527c-20.427-0.148-41.682-19.864-49.291-36.206-1.569-3.405-1.362-6.454 0.652-9.207 1.332-1.865 3.848-2.427 5.861-1.362 17.437 9.236 32.742 22.232 45.857 38.959 0.888 1.125 1.273 2.546 1.155 3.967-0.267 2.576-1.658 3.849-4.234 3.849m376.11-24.081c2.959-1.392 5.984-1.19 6.756 0.452 0.772 1.642-1 4.102-3.958 5.494-2.958 1.392-5.984 1.19-6.756-0.452-0.772-1.642 0.999-4.102 3.958-5.494m-410.54 32.37c-8.615-1.421-19.539-6.572-24.186-13.647-3.76-5.684 0.296-12.463 7.105-10.391 8.437 2.575 16.253 11.96 20.367 19.391 1.273 2.308-0.681 5.091-3.286 4.647m-33.157 6.868c0.17865-0.39355 0.62781-0.58605 1.036-0.444l0.414 0.177c9.237 3.582 16.341 7.431 15.897 8.615l-0.237 0.651c-0.474 1.155-8.319-0.829-17.555-4.411l-0.415-0.178c-0.415-0.148-0.592-0.622-0.444-1.036zm1405.3 150.27c-45.856-21.582-89.967-41.949-138.22-58.142-1.747-0.563-3.049-1.598-3.938-3.049-0.858-1.421 0.089-3.227 1.747-3.286q11.235-0.4 21.936 1.51c37.301 6.572 74.868 19.45 110.42 33.482 16.016 6.306 58.024 26.792 58.645 42.275 0.03 1.273-0.562 2.072-1.806 2.368-3.582 0.859-7.105 0.74-10.568-0.325-13.261-4.146-25.991-9.09-38.218-14.833m10.776 35.702c-16.637-4.085-33.896-11.783-49.024-19.45-4.204-2.102-7.578-5.181-10.124-9.207-0.681-1.066-0.474-2.457 0.444-3.316 0.681-0.622 1.48-0.859 2.338-0.74 21.552 3.286 41.949 16.489 58.971 29.515 1.54 1.184 0.563 3.612-1.362 3.405-0.354-0.029-0.769-0.118-1.243-0.207m-1694.9 232.81c-17.259 22.351-27.65 42.274-35.525 68.267-1.51 4.944-18.384 56.129-30.758 36.472-9.089-14.476-4.618-33.068 2.931-47.485 13.411-25.696 33.837-46.094 61.221-61.191 0.45085-0.25761 0.98596-0.32435 1.4863-0.18538 0.50031 0.13898 0.92434 0.47214 1.1777 0.92538 0.266 0.444 0.355 0.947 0.237 1.51-0.12097 0.61489-0.38473 1.1927-0.77 1.687m2199.5 80.019c-22.884-11.694-45.235-23.624-61.221-41.386-1.392-1.54-1.036-2.457 1.006-2.724 0.385-0.059 0.77-0.089 1.154-0.059 0.563 0.03 1.066 0.148 1.51 0.414 17.97 10.213 35.969 22.322 54.027 36.294 3.079 2.398 4.826 4.441 5.21 6.158 0.386 1.629-0.176 2.073-1.686 1.303m-2941 16.46c-11.545-8.94-28.657-26.347-26.792-40.616 0.237-1.806 2.072-2.96 3.819-2.398 14.595 4.855 21.759 22.351 26.259 36.265 0.563 1.747 0.74 3.464 0.533 5.181-0.236 1.834-2.368 2.693-3.819 1.568m740.34-25.43c4.885 11.22-8.792 35.14-15.512 43.844-1.895 2.457-5.773 1.658-6.542-1.362-4.056-16.104-2.487-37.419 15.394-45.116 2.575-1.126 5.535 0.058 6.66 2.634m57.023 39.378c0.747 4.715-1.646 9.013-5.344 9.599-3.698 0.586-7.302-2.762-8.048-7.478-0.746-4.716 1.646-9.013 5.344-9.598 3.698-0.585 7.301 2.762 8.048 7.477m936.25 5.176c45.383 13.766 107.85 43.903 124.75 90.973 1.362 3.819-1.095 7.934-5.092 8.556-2.605 0.385-5.092-0.089-7.49-1.48-11.812-6.72-23.831-14.477-36.028-23.269-35.14-25.4-69.333-51.511-105.72-73.507-0.918-0.563-1.332-1.391-1.214-2.487 0.119-1.184 1.095-2.102 2.28-2.191 9.562-0.621 19.065 0.533 28.509 3.405m143.13 44.317c-15.749-8.141-34.4-18.917-41.357-34.281-1.421-3.138 1.184-6.632 4.589-6.158 17.733 2.516 34.311 21.64 45.323 34.489 1.895 2.22 3.227 4.766 3.997 7.697 0.267 0.947-0.533 1.865-1.51 1.747-3.76-0.445-7.43-1.629-11.042-3.494m910.09-14.92c0.19622-0.31406 0.50919-0.5373 0.87002-0.62057 0.36084-0.08327 0.73998-0.019756 1.054 0.17657l0.473 0.296c15.809 9.858 27.709 19.361 26.525 21.226l-0.237 0.385c-1.184 1.895-14.95-4.589-30.758-14.417l-0.503-0.296c-0.651-0.415-0.829-1.273-0.444-1.924zm-1077 80.078q-9.813-3.553-14.21-12.256c-2.161-4.263-0.622-6.572 4.677-6.897 1.2609-0.094143 2.5013 0.35868 3.405 1.243 3.7 3.612 6.542 7.934 8.555 12.996 0.651 1.628 0.444 3.079-0.622 4.411-0.43383 0.53391-1.1576 0.7356-1.805 0.503m-479.47 142.81c-18.68 1.214-41.742 1.036-59.563-6.602-1.776-0.77-1.954-3.227-0.296-4.233 10.717-6.454 46.893 2.457 60.274 6.72 1.006 0.326 1.48 1.007 1.45 2.073-0.03 0.385-0.118 0.74-0.326 1.066-0.326 0.621-0.858 0.946-1.539 0.976m-1446.4 146.75q-8.66 17.718-14.388 34.992c-4.677 14.032-11.427 27.502-18.236 40.735-0.829 1.599-1.836 2.457-2.99 2.575-1.391 0.148-2.546-1.036-2.398-2.427 1.984-19.154 8.348-36.087 19.539-52.162 5.714-8.2 11.25-16.963 16.637-26.318 0.237-0.385 0.503-0.415 0.829-0.118l0.592 0.503c0.622 0.562 0.77 1.48 0.415 2.22m265.37 3.375c-3.079 10.272-8.881 20.071-13.115 30.137-6.187 14.861-15.365 27.502-24.779 40.38-1.628 2.22-3.641 3.908-6.098 5.062-1.391 0.651-2.99-0.355-2.99-1.895 0-10.154 5.27-22.174 9.384-31.292 7.135-15.69 20.219-29.042 31.587-42.156 0.99098-1.1496 2.2826-2.0004 3.73-2.457 1.393-0.444 2.696 0.829 2.281 2.221m2225 464.07c-0.444 1.48-1.362 2.576-2.724 3.286-0.977 0.503-2.131-0.296-2.043-1.391 2.398-32.031 4.263-65.336 10.45-96.124 2.901-14.417 7.105-31.765 12.582-52.073 1.391-5.092 2.96-9.325 4.737-12.67 1.688-3.168 2.842-2.96 3.434 0.592 0.563 3.404 1.391 7.697 1.184 11.131q-4.75 73.224-27.62 147.25m-686.07-135.59c17.792 4.233 37.715 13.766 56.751 23.683 15.72 8.2 27.917 19.242 36.531 33.127 1.717 2.753 2.309 5.506 1.776 8.289-0.651 3.493-4.352 5.477-7.608 4.056-10.598-4.559-20.782-10.421-30.581-17.585-16.223-11.871-34.133-25.963-53.761-42.274-1.9685-1.6224-3.8279-3.3728-5.566-5.24-0.71-0.77-0.918-1.658-0.592-2.665q0.31-1.021 1.332-1.332c0.55565-0.18123 1.1512-0.20168 1.718-0.059m173.67 15.702c-1.565 4.057-5.184 6.44-8.082 5.322-2.898-1.118-3.979-5.314-2.413-9.372s5.184-6.44 8.083-5.322c2.897 1.119 3.977 5.314 2.412 9.372m-1077.2 11.445c3.197-5.358 6.454-10.865 9.77-16.46 0.858-1.451 2.013-2.25 3.523-2.398 1.539-0.178 2.783 1.302 2.309 2.783-8.26 26.969-13.411 53.168-15.424 78.539-1.125 14.21-2.22 28.42-3.256 42.6-0.503 6.602-2.428 12.404-5.832 17.466-2.398 3.612-7.342 4.441-10.805 1.835-16.963-12.759-14.654-43.251-8.911-60.629 7.696-23.297 17.228-44.553 28.626-63.736m1031.2-3.172c6.486 6.134 9.75 13.215 7.29 15.817-2.46 2.601-9.713-0.262-16.199-6.396s-9.75-13.215-7.29-15.816c2.46-2.601 9.713 0.262 16.199 6.395m-984.79 118.54c-0.977 2.25-2.427 4.085-4.381 5.506-1.717 1.243-4.115 0.977-5.536-0.622-10.361-11.693-5.98-36.028 0.148-47.662 4.2377-8.0111 8.5999-15.956 13.085-23.831 1.569-2.783 2.25-2.576 2.013 0.622q-0.444 6.394 0 12.167c1.539 19.745 2.072 36.472-5.329 53.82m65.746-13.523c1.86 3.455 1.011 7.525-1.897 9.091-2.908 1.566-6.773 0.034-8.634-3.421-1.86-3.455-1.011-7.525 1.897-9.091 2.908-1.566 6.774-0.034 8.634 3.421m1726.3 75.454c-4.026-10.243-6.187-20.989-8.407-31.646-1.747-8.556-2.28-17.318-1.569-26.348 0.444-5.536 0.799-8.615 1.066-9.207 5.151-11.042 8.94-10.598 11.397 1.391q5.24 25.666 2.487 62.968c-0.118 1.628-0.859 2.901-2.25 3.76-1.273 0.769-2.161 0.473-2.724-0.918m-1293.7 156.16c-2.339-4.292-3.908-9.029-4.707-14.239-0.385-2.487 2.457-4.174 4.47-2.665 3.612 2.694 6.631 6.276 9.088 10.717q9.947 17.985 18.207 37.745c0.74 1.747 1.066 3.464 0.918 5.092-0.267 3.405-1.451 3.76-3.523 1.036-8.881-11.516-17.022-24.098-24.453-37.686m-74.572 328.72c-20.22-8.733-36.798-24.867-50.268-41.712-12.907-16.135-25.223-33.453-36.975-52.014-0.622-0.977-0.474-1.806 0.414-2.516l0.711-0.562c0.326-0.267 0.799-0.237 1.066 0.059 12.67 13.677 24.867 27.295 39.048 40.143 19.361 17.496 37.508 34.874 54.471 52.133 2.783 2.812 2.25 4.707-1.628 5.654-1.717 0.443-3.997 0.029-6.839-1.185" fill="#1b1c1e" stroke-linecap="round"/>
</g>
</svg>
